<?xml version="1.0" encoding="UTF-8"?>
<!DOCTYPE svg PUBLIC "-//W3C//DTD SVG 1.1//EN" "http://www.w3.org/Graphics/SVG/1.1/DTD/svg11.dtd">
<svg xmlns="http://www.w3.org/2000/svg" version="1.1" width="200px" height="200px" style="shape-rendering:geometricPrecision; text-rendering:geometricPrecision; image-rendering:optimizeQuality; fill-rule:evenodd; clip-rule:evenodd" xmlns:xlink="http://www.w3.org/1999/xlink">
<g><path style="opacity:0.998" fill="#222322" d="M 8.5,-0.5 C 69.1667,-0.5 129.833,-0.5 190.5,-0.5C 194.58,1.91067 197.58,5.244 199.5,9.5C 199.5,69.8333 199.5,130.167 199.5,190.5C 196.789,194.212 193.456,197.212 189.5,199.5C 129.5,199.5 69.5,199.5 9.5,199.5C 5.54423,197.212 2.21089,194.212 -0.5,190.5C -0.5,130.167 -0.5,69.8333 -0.5,9.5C 1.42004,5.244 4.42004,1.91067 8.5,-0.5 Z"/></g>
<g><path style="opacity:1" fill="#007f45" d="M 16.5,9.5 C 71.8343,9.33334 127.168,9.50001 182.5,10C 186,10.8333 188.167,13 189,16.5C 189.5,57.4986 189.667,98.4986 189.5,139.5C 149.832,139.667 110.165,139.5 70.5,139C 72.0462,134.981 73.0462,130.815 73.5,126.5C 68.2404,125.079 62.9071,124.079 57.5,123.5C 56.5,128.833 55.5,134.167 54.5,139.5C 39.5,139.5 24.5,139.5 9.5,139.5C 9.33334,98.4986 9.50001,57.4986 10,16.5C 11.0183,12.9853 13.1849,10.652 16.5,9.5 Z"/></g>
<g><path style="opacity:1" fill="#222223" d="M 49.5,19.5 C 51.8568,19.3367 54.1902,19.5034 56.5,20C 57.2931,21.0852 57.9598,22.2519 58.5,23.5C 54.6679,37.4944 50.8346,51.4944 47,65.5C 45.1314,70.5431 42.1314,71.5431 38,68.5C 37.3333,65.5 37.3333,62.5 38,59.5C 41.2214,45.9407 45.0548,32.6074 49.5,19.5 Z"/></g>
<g><path style="opacity:1" fill="#222325" d="M 60.5,25.5 C 62.5666,25.5323 63.8999,26.5323 64.5,28.5C 61.435,40.8612 58.2684,53.1945 55,65.5C 54.2306,69.7987 52.0639,70.632 48.5,68C 52.4236,53.8046 56.4236,39.638 60.5,25.5 Z"/></g>
<g><path style="opacity:1" fill="#222222" d="M 67.5,25.5 C 82.1413,29.3273 96.8079,33.1606 111.5,37C 112.428,37.3879 113.095,38.0546 113.5,39C 109.104,54.084 105.104,69.2506 101.5,84.5C 86.415,80.9178 71.415,76.9178 56.5,72.5C 56.1667,71.8333 55.8333,71.1667 55.5,70.5C 59.6603,55.5244 63.6603,40.5244 67.5,25.5 Z"/></g>
<g><path style="opacity:1" fill="#222223" d="M 124.5,39.5 C 126.857,39.3367 129.19,39.5034 131.5,40C 132.293,41.0852 132.96,42.2519 133.5,43.5C 129.437,58.1904 125.27,72.8571 121,87.5C 118.679,90.9166 116.012,91.2499 113,88.5C 112.333,85.5 112.333,82.5 113,79.5C 116.231,65.8953 120.064,52.5619 124.5,39.5 Z"/></g>
<g><path style="opacity:1" fill="#232325" d="M 115.5,40.5 C 117.948,40.0101 119.615,40.8434 120.5,43C 117,56.1667 113.5,69.3333 110,82.5C 108.186,83.7596 106.353,83.7596 104.5,82.5C 108.482,68.5728 112.148,54.5728 115.5,40.5 Z"/></g>
<g><path style="opacity:1" fill="#222223" d="M 70.5,79.5 C 75.3949,80.3884 80.0616,81.8884 84.5,84C 81.4396,93.4029 78.6063,102.903 76,112.5C 75.6121,113.428 74.9454,114.095 74,114.5C 70.8549,113.589 67.6883,112.755 64.5,112C 63.572,111.612 62.9054,110.945 62.5,110C 65.4066,99.8726 68.0732,89.706 70.5,79.5 Z"/></g>
<g><path style="opacity:1" fill="#222225" d="M 57.5,112.5 C 64.8394,114.169 72.1727,115.836 79.5,117.5C 79.4249,120.206 79.0916,122.873 78.5,125.5C 70.8668,123.675 63.2001,122.008 55.5,120.5C 55.8583,117.733 56.525,115.067 57.5,112.5 Z"/></g>
<g><path style="opacity:1" fill="#007f45" d="M 180.5,157.5 C 181.708,156.218 183.042,156.218 184.5,157.5C 184.376,158.107 184.043,158.44 183.5,158.5C 182.791,157.596 181.791,157.263 180.5,157.5 Z"/></g>
<g><path style="opacity:1" fill="#e7e9e7" d="M 19.5,156.5 C 23.1219,155.924 26.1219,156.924 28.5,159.5C 27.1406,161.636 25.3072,161.969 23,160.5C 21.1878,160.493 19.6878,161.16 18.5,162.5C 15.6545,171.984 18.9878,175.651 28.5,173.5C 28.5,174.833 28.5,176.167 28.5,177.5C 16.488,179.488 11.6547,174.488 14,162.5C 15.3597,159.977 17.193,157.977 19.5,156.5 Z"/></g>
<g><path style="opacity:1" fill="#eeefee" d="M 35.5,156.5 C 39.3101,156.379 42.4768,157.712 45,160.5C 45.6667,164.833 45.6667,169.167 45,173.5C 42.487,177.212 38.987,178.378 34.5,177C 28.9054,169.859 29.2387,163.026 35.5,156.5 Z"/></g>
<g><path style="opacity:1" fill="#ecedec" d="M 58.5,157.5 C 59.5,157.5 60.5,157.5 61.5,157.5C 61.5,164.167 61.5,170.833 61.5,177.5C 59.8333,177.5 58.1667,177.5 56.5,177.5C 53.2896,159.143 51.9562,159.143 52.5,177.5C 51.1667,177.5 49.8333,177.5 48.5,177.5C 48.5,170.833 48.5,164.167 48.5,157.5C 50.5,157.5 52.5,157.5 54.5,157.5C 57.7036,174.512 59.0369,174.512 58.5,157.5 Z"/></g>
<g><path style="opacity:1" fill="#9daaa1" d="M 58.5,157.5 C 59.5676,156.566 60.901,156.232 62.5,156.5C 62.8245,163.687 62.4912,170.687 61.5,177.5C 61.5,170.833 61.5,164.167 61.5,157.5C 60.5,157.5 59.5,157.5 58.5,157.5 Z"/></g>
<g><path style="opacity:1" fill="#f8f8f8" d="M 77.5,169.5 C 74.8333,169.5 72.1667,169.5 69.5,169.5C 69.5,172.167 69.5,174.833 69.5,177.5C 68.5,177.5 67.5,177.5 66.5,177.5C 66.5,170.833 66.5,164.167 66.5,157.5C 71.1667,157.5 75.8333,157.5 80.5,157.5C 80.5,158.5 80.5,159.5 80.5,160.5C 77.1667,160.5 73.8333,160.5 70.5,160.5C 70.5,162.5 70.5,164.5 70.5,166.5C 72.8333,166.5 75.1667,166.5 77.5,166.5C 77.5,167.5 77.5,168.5 77.5,169.5 Z"/></g>
<g><path style="opacity:1" fill="#e9eae9" d="M 87.5,156.5 C 91.8884,155.943 95.0551,157.61 97,161.5C 97.6667,165.167 97.6667,168.833 97,172.5C 93.7973,177.916 89.464,178.916 84,175.5C 82.5076,170.589 82.1743,165.589 83,160.5C 84.3968,158.93 85.8968,157.596 87.5,156.5 Z"/></g>
<g><path style="opacity:1" fill="#f2f3f2" d="M 100.5,157.5 C 104.182,157.335 107.848,157.501 111.5,158C 115.455,161.795 115.455,165.628 111.5,169.5C 112.305,171.915 113.305,174.249 114.5,176.5C 113.167,177.833 111.833,177.833 110.5,176.5C 109.815,172.382 107.482,170.382 103.5,170.5C 103.5,172.833 103.5,175.167 103.5,177.5C 102.5,177.5 101.5,177.5 100.5,177.5C 100.5,170.833 100.5,164.167 100.5,157.5 Z"/></g>
<g><path style="opacity:1" fill="#ebecec" d="M 117.5,157.5 C 119.288,157.215 120.955,157.548 122.5,158.5C 123.213,160.776 123.713,163.109 124,165.5C 124.822,162.883 125.322,160.216 125.5,157.5C 127.5,157.5 129.5,157.5 131.5,157.5C 131.5,164.167 131.5,170.833 131.5,177.5C 130.167,177.5 128.833,177.5 127.5,177.5C 127.666,172.821 127.499,168.155 127,163.5C 126.505,165.473 126.338,167.473 126.5,169.5C 125.167,169.5 123.833,169.5 122.5,169.5C 122.322,166.784 121.822,164.117 121,161.5C 120.501,166.823 120.334,172.156 120.5,177.5C 119.5,177.5 118.5,177.5 117.5,177.5C 117.5,170.833 117.5,164.167 117.5,157.5 Z"/></g>
<g><path style="opacity:1" fill="#f2f2f2" d="M 134.5,157.5 C 138.833,157.5 143.167,157.5 147.5,157.5C 147.5,158.5 147.5,159.5 147.5,160.5C 146.167,160.5 144.833,160.5 143.5,160.5C 143.5,165.167 143.5,169.833 143.5,174.5C 144.833,174.5 146.167,174.5 147.5,174.5C 147.5,175.5 147.5,176.5 147.5,177.5C 143.167,177.5 138.833,177.5 134.5,177.5C 134.5,176.5 134.5,175.5 134.5,174.5C 136.167,174.5 137.833,174.5 139.5,174.5C 139.5,169.833 139.5,165.167 139.5,160.5C 137.833,160.5 136.167,160.5 134.5,160.5C 134.5,159.5 134.5,158.5 134.5,157.5 Z"/></g>
<g><path style="opacity:1" fill="#f1f1f1" d="M 150.5,157.5 C 155.833,157.5 161.167,157.5 166.5,157.5C 166.5,158.5 166.5,159.5 166.5,160.5C 164.5,160.5 162.5,160.5 160.5,160.5C 160.5,166.167 160.5,171.833 160.5,177.5C 159.167,177.5 157.833,177.5 156.5,177.5C 156.5,171.833 156.5,166.167 156.5,160.5C 154.5,160.5 152.5,160.5 150.5,160.5C 150.5,159.5 150.5,158.5 150.5,157.5 Z"/></g>
<g><path style="opacity:1" fill="#eff0f0" d="M 180.5,157.5 C 181.791,157.263 182.791,157.596 183.5,158.5C 179.472,164.216 177.472,170.549 177.5,177.5C 176.167,177.5 174.833,177.5 173.5,177.5C 174.167,175.181 174.334,172.847 174,170.5C 171.961,166.255 169.794,162.088 167.5,158C 168.833,157.333 170.167,157.333 171.5,158C 172.812,160.941 174.312,163.774 176,166.5C 177.53,163.439 179.03,160.439 180.5,157.5 Z"/></g>
<g><path style="opacity:1" fill="#262a27" d="M 36.5,160.5 C 38.1439,160.286 39.6439,160.62 41,161.5C 42.6593,164.945 42.826,168.445 41.5,172C 39.5215,174.997 37.3548,175.164 35,172.5C 33.994,168.198 34.494,164.198 36.5,160.5 Z"/></g>
<g><path style="opacity:1" fill="#242b26" d="M 87.5,160.5 C 89.7224,160.178 91.5557,160.845 93,162.5C 93.6667,165.833 93.6667,169.167 93,172.5C 91.4447,174.515 89.6114,174.848 87.5,173.5C 85.0031,169.16 85.0031,164.827 87.5,160.5 Z"/></g>
<g><path style="opacity:1" fill="#25352a" d="M 103.5,160.5 C 105.527,160.338 107.527,160.505 109.5,161C 110.833,162.667 110.833,164.333 109.5,166C 107.527,166.495 105.527,166.662 103.5,166.5C 103.5,164.5 103.5,162.5 103.5,160.5 Z"/></g>
<g><path style="opacity:1" fill="#718d79" d="M 77.5,169.5 C 75.3926,170.468 73.0593,170.802 70.5,170.5C 70.8016,173.059 70.4682,175.393 69.5,177.5C 69.5,174.833 69.5,172.167 69.5,169.5C 72.1667,169.5 74.8333,169.5 77.5,169.5 Z"/></g>
</svg>
