<?xml version="1.0" encoding="UTF-8"?>
<!DOCTYPE svg PUBLIC "-//W3C//DTD SVG 1.1//EN" "http://www.w3.org/Graphics/SVG/1.1/DTD/svg11.dtd">
<svg xmlns="http://www.w3.org/2000/svg" version="1.1" width="200px" height="200px" style="shape-rendering:geometricPrecision; text-rendering:geometricPrecision; image-rendering:optimizeQuality; fill-rule:evenodd; clip-rule:evenodd" xmlns:xlink="http://www.w3.org/1999/xlink">
<g><path style="opacity:0.998" fill="#212121" d="M 8.5,-0.5 C 69.1667,-0.5 129.833,-0.5 190.5,-0.5C 194.58,1.91067 197.58,5.244 199.5,9.5C 199.5,69.8333 199.5,130.167 199.5,190.5C 196.789,194.212 193.456,197.212 189.5,199.5C 129.5,199.5 69.5,199.5 9.5,199.5C 5.54423,197.212 2.21089,194.212 -0.5,190.5C -0.5,130.167 -0.5,69.8333 -0.5,9.5C 1.42004,5.244 4.42004,1.91067 8.5,-0.5 Z"/></g>
<g><path style="opacity:1" fill="#5f0000" d="M 15.5,9.5 C 72.2502,9.00822 128.917,9.50822 185.5,11C 187.049,12.214 188.215,13.714 189,15.5C 189.5,56.832 189.667,98.1653 189.5,139.5C 129.5,139.5 69.5,139.5 9.5,139.5C 9.33334,98.1653 9.50001,56.832 10,15.5C 11.3597,12.9774 13.193,10.9774 15.5,9.5 Z"/></g>
<g><path style="opacity:1" fill="#222121" d="M 152.5,127.5 C 152.369,128.239 152.536,128.906 153,129.5C 155.129,128.137 155.629,128.471 154.5,130.5C 155.274,131.711 156.107,131.711 157,130.5C 157.5,131.5 158,132.5 158.5,133.5C 154.425,135.061 150.758,134.394 147.5,131.5C 145.833,134.167 144.167,134.167 142.5,131.5C 141.614,132.325 141.281,133.325 141.5,134.5C 136.624,135.596 134.957,133.929 136.5,129.5C 135.5,128.833 134.5,128.167 133.5,127.5C 134.962,123.599 134.462,119.932 132,116.5C 130.667,115.167 129.333,115.167 128,116.5C 126.59,115.213 125.09,114.046 123.5,113C 124.167,112 124.833,111 125.5,110C 122.224,103.601 123.224,97.9339 128.5,93C 128.097,91.5272 127.43,90.1939 126.5,89C 127,88.5 127.5,88 128,87.5C 129.183,88.731 130.349,88.731 131.5,87.5C 128.97,86.8681 126.637,85.8681 124.5,84.5C 125.64,82.9222 126.14,81.2555 126,79.5C 124.649,81.019 123.149,82.3523 121.5,83.5C 119.842,80.8392 118.176,78.1725 116.5,75.5C 118.12,73.2606 117.787,71.4272 115.5,70C 116.833,68.3333 116.833,66.6667 115.5,65C 112.466,64.3399 109.633,64.8399 107,66.5C 105.732,66.3842 104.398,66.0509 103,65.5C 103.522,67.0491 103.355,68.5491 102.5,70C 102.905,70.9454 103.572,71.6121 104.5,72C 103.707,73.0852 103.04,74.2519 102.5,75.5C 104.395,76.973 106.061,78.6397 107.5,80.5C 108.478,80.0233 109.311,79.3567 110,78.5C 111.113,79.7111 112.28,79.7111 113.5,78.5C 115.285,80.6081 116.619,82.9414 117.5,85.5C 116.07,87.386 114.403,89.0527 112.5,90.5C 115.895,91.8377 119.562,93.3377 123.5,95C 122.167,95.3333 120.833,95.6667 119.5,96C 121.548,98.3284 121.882,100.995 120.5,104C 120.396,106.145 121.063,107.979 122.5,109.5C 120.024,113.81 116.69,117.31 112.5,120C 113.667,123.833 116.167,126.333 120,127.5C 121.615,129.011 121.615,130.344 120,131.5C 119.097,130.299 117.931,129.465 116.5,129C 112.627,128.73 108.794,128.23 105,127.5C 102.97,125.136 100.637,123.136 98,121.5C 97.5,121.667 97,121.833 96.5,122C 98.5593,123.185 98.726,124.352 97,125.5C 93.3333,126.167 89.6667,126.833 86,127.5C 84.2856,126.924 83.1189,125.757 82.5,124C 85.4879,120.114 84.4879,117.614 79.5,116.5C 77.4465,118.027 75.6132,119.693 74,121.5C 68.19,120.177 63.0233,117.677 58.5,114C 61.8644,109.766 64.0311,104.933 65,99.5C 68.7944,96.8988 72.9611,95.0655 77.5,94C 78.5171,92.9505 78.6838,91.7839 78,90.5C 75.8471,92.4439 73.3471,92.9439 70.5,92C 71.7112,91.1072 71.7112,90.2739 70.5,89.5C 68.8988,88.8346 67.3988,88.5012 66,88.5C 64.0986,85.2533 64.2653,82.0866 66.5,79C 63.5451,76.588 62.0451,73.4213 62,69.5C 60.0679,67.9617 57.9012,66.795 55.5,66C 56.8333,65.3333 56.8333,64.6667 55.5,64C 53.8333,63.3333 52.1667,63.3333 50.5,64C 48.2178,66.1668 46.7178,68.3335 46,70.5C 44.2774,68.9205 42.4441,67.4205 40.5,66C 39.1667,65.3333 37.8333,65.3333 36.5,66C 35.2774,68.944 33.4441,71.444 31,73.5C 28.9575,71.2878 26.7908,69.2878 24.5,67.5C 25.7044,65.0972 26.0378,62.7638 25.5,60.5C 26.6399,58.5266 27.9733,56.6933 29.5,55C 36.5853,52.1716 43.2519,48.505 49.5,44C 47.1893,44.1554 44.856,44.1554 42.5,44C 42.3014,40.6775 40.6347,38.5109 37.5,37.5C 32.6326,42.6784 27.6326,47.845 22.5,53C 23.5491,57.005 21.8825,58.8384 17.5,58.5C 17.579,50.0731 20.4123,42.7398 26,36.5C 26.3333,35.1667 26.6667,33.8333 27,32.5C 29.687,28.8167 32.687,25.4834 36,22.5C 36.9147,23.3279 37.5814,24.3279 38,25.5C 40.0774,21.4378 43.4107,18.7711 48,17.5C 48.0533,20.202 47.5533,22.8686 46.5,25.5C 46.8218,28.325 47.9885,30.6584 50,32.5C 54.8137,29.3787 58.9804,25.712 62.5,21.5C 63.1654,19.8988 63.4988,18.3988 63.5,17C 65.8132,17.1491 68.1465,17.6491 70.5,18.5C 72.147,17.7224 73.4804,16.5557 74.5,15C 79.1721,13.478 83.6721,12.3113 88,11.5C 89.9959,15.6471 88.1626,18.1471 82.5,19C 81.0403,19.8113 80.707,20.6446 81.5,21.5C 84.7399,21.3955 87.7399,20.0622 90.5,17.5C 91.086,17.7093 91.586,18.0426 92,18.5C 93.0195,17.3128 94.1861,16.3128 95.5,15.5C 98.1667,16.8333 100.833,16.8333 103.5,15.5C 104.611,16.6113 105.945,17.278 107.5,17.5C 109.105,16.5697 110.605,16.5697 112,17.5C 112.804,16.1955 113.971,15.5288 115.5,15.5C 117.952,17.1509 120.118,19.1509 122,21.5C 121.784,24.0152 121.117,26.3485 120,28.5C 122.624,26.4393 125.458,24.7727 128.5,23.5C 132.816,24.4446 133.482,26.4446 130.5,29.5C 132.086,32.3405 133.92,35.0072 136,37.5C 135.721,42.7036 137.054,47.7036 140,52.5C 144.326,55.8264 148.326,59.4931 152,63.5C 153.141,60.5278 155.308,58.8611 158.5,58.5C 161.372,63.2963 164.372,63.463 167.5,59C 166.663,57.9887 166.33,56.8221 166.5,55.5C 168.124,55.6399 169.29,54.9733 170,53.5C 171.086,49.3795 171.586,45.2129 171.5,41C 169.419,36.4055 167.086,31.9055 164.5,27.5C 168.532,27.1109 172.366,28.1109 176,30.5C 175.508,34.6682 176.674,38.5015 179.5,42C 179.907,45.6293 179.407,49.1293 178,52.5C 178.333,52.8333 178.667,53.1667 179,53.5C 180.093,51.6508 181.426,49.9842 183,48.5C 186.299,51.6308 185.633,53.9641 181,55.5C 179.228,60.4531 177.562,65.4531 176,70.5C 173.622,72.863 171.122,74.1963 168.5,74.5C 170.566,75.9063 172.732,77.2396 175,78.5C 174.57,80.127 174.404,81.627 174.5,83C 176.919,84.5088 177.919,86.6755 177.5,89.5C 176.07,89.4208 174.736,89.7542 173.5,90.5C 172.305,88.703 170.638,87.703 168.5,87.5C 168.833,90.6842 169,94.0175 169,97.5C 169.212,100.252 170.045,102.752 171.5,105C 170.766,110.508 169.932,116.008 169,121.5C 167.082,122.542 165.249,123.708 163.5,125C 164.946,127.493 164.279,129.327 161.5,130.5C 157.583,128.952 157.749,127.619 162,126.5C 162.667,125.833 162.667,125.167 162,124.5C 160.667,124.5 159.333,124.5 158,124.5C 157.581,123.328 156.915,122.328 156,121.5C 154.354,123.055 154.021,124.721 155,126.5C 154.329,127.252 153.496,127.586 152.5,127.5 Z"/></g>
<g><path style="opacity:1" fill="#232121" d="M 132.5,12.5 C 134.924,12.1924 137.257,12.5258 139.5,13.5C 139.97,17.1878 138.304,19.8544 134.5,21.5C 134.762,19.8678 133.762,18.7012 131.5,18C 131.565,16.1712 131.898,14.3379 132.5,12.5 Z"/></g>
<g><path style="opacity:1" fill="#5f0000" d="M 91.5,21.5 C 92.3764,21.3691 93.0431,21.7025 93.5,22.5C 91.1916,23.8734 90.5249,23.5401 91.5,21.5 Z"/></g>
<g><path style="opacity:1" fill="#5f0000" d="M 77.5,22.5 C 78.7759,23.3864 78.7759,24.3864 77.5,25.5C 76.4376,24.5754 76.4376,23.5754 77.5,22.5 Z"/></g>
<g><path style="opacity:1" fill="#5f0000" d="M 82.5,24.5 C 83.9953,24.4148 84.9953,25.0815 85.5,26.5C 83.6043,27.6394 82.6043,26.9728 82.5,24.5 Z"/></g>
<g><path style="opacity:1" fill="#222121" d="M 144.5,24.5 C 148.935,26.2753 153.601,27.442 158.5,28C 159.585,30.172 160.919,32.172 162.5,34C 157.735,36.0401 157.402,38.8735 161.5,42.5C 162.908,43.2432 164.241,44.0766 165.5,45C 165.167,45.3333 164.833,45.6667 164.5,46C 166.211,47.1332 166.711,48.6332 166,50.5C 162.938,48.8695 161.271,49.8695 161,53.5C 160.517,52.552 160.351,51.552 160.5,50.5C 158.5,50.5 156.5,50.5 154.5,50.5C 154.649,49.448 154.483,48.448 154,47.5C 153.667,47.8333 153.333,48.1667 153,48.5C 151.333,47.8333 149.667,47.1667 148,46.5C 148,48.5 148,50.5 148,52.5C 142.16,49.9932 140.16,45.6599 142,39.5C 141.097,38.2986 139.931,37.4652 138.5,37C 139.458,35.8525 139.125,34.8525 137.5,34C 138.328,33.0853 139.328,32.4186 140.5,32C 139.167,31.3333 139.167,30.6667 140.5,30C 139.672,29.0853 138.672,28.4186 137.5,28C 139.582,26.1689 141.915,25.0022 144.5,24.5 Z"/></g>
<g><path style="opacity:1" fill="#5f0000" d="M 110.5,25.5 C 111.756,25.4614 112.756,25.9614 113.5,27C 112.167,27.6667 110.833,27.6667 109.5,27C 110.056,26.6174 110.389,26.1174 110.5,25.5 Z"/></g>
<g><path style="opacity:1" fill="#5f0000" d="M 75.5,28.5 C 77.4235,30.1497 78.4235,31.9831 78.5,34C 73.5407,34.232 72.5407,32.3987 75.5,28.5 Z"/></g>
<g><path style="opacity:1" fill="#252121" d="M 135.5,29.5 C 137.225,29.8425 137.725,30.8425 137,32.5C 135.961,31.7562 135.461,30.7562 135.5,29.5 Z"/></g>
<g><path style="opacity:1" fill="#5f0000" d="M 118.5,36.5 C 120.337,36.6395 120.67,37.3061 119.5,38.5C 118.702,38.0431 118.369,37.3764 118.5,36.5 Z"/></g>
<g><path style="opacity:1" fill="#5f0000" d="M 90.5,39.5 C 93.0573,40.1878 95.3907,41.3545 97.5,43C 94.3511,44.0346 91.6844,43.3679 89.5,41C 90.056,40.6174 90.3893,40.1174 90.5,39.5 Z"/></g>
<g><path style="opacity:1" fill="#5f0000" d="M 111.5,41.5 C 112.5,41.5 113.5,41.5 114.5,41.5C 114.5,42.5 114.5,43.5 114.5,44.5C 111.433,44.8795 110.433,43.8795 111.5,41.5 Z"/></g>
<g><path style="opacity:1" fill="#5f0000" d="M 145.5,42.5 C 146.325,44.1252 145.992,45.7918 144.5,47.5C 143.348,45.6029 143.681,43.9362 145.5,42.5 Z"/></g>
<g><path style="opacity:1" fill="#5f0000" d="M 117.5,45.5 C 119.124,45.3601 120.29,46.0267 121,47.5C 122.88,46.0705 124.38,46.4038 125.5,48.5C 124.652,50.2828 123.319,50.7828 121.5,50C 119.249,49.2525 117.916,47.7525 117.5,45.5 Z"/></g>
<g><path style="opacity:1" fill="#232121" d="M 106.5,69.5 C 112.569,67.4825 114.402,69.4825 112,75.5C 109.691,73.8012 107.858,71.8012 106.5,69.5 Z"/></g>
<g><path style="opacity:1" fill="#5f0000" d="M 123.5,70.5 C 125.337,70.6395 125.67,71.3061 124.5,72.5C 123.702,72.0431 123.369,71.3764 123.5,70.5 Z"/></g>
<g><path style="opacity:1" fill="#232121" d="M 52.5,71.5 C 56.1811,71.7178 56.8478,72.8844 54.5,75C 56.3031,75.6368 57.6364,76.8035 58.5,78.5C 55.9135,79.48 53.2469,79.8134 50.5,79.5C 50.5614,77.4078 51.5614,75.9078 53.5,75C 52.3774,73.9563 51.0441,73.2896 49.5,73C 50.7375,72.7679 51.7375,72.2679 52.5,71.5 Z"/></g>
<g><path style="opacity:1" fill="#5f0000" d="M 130.5,81.5 C 132.76,82.2376 132.927,83.2376 131,84.5C 129.272,83.6477 129.105,82.6477 130.5,81.5 Z"/></g>
<g><path style="opacity:1" fill="#5f0000" d="M 133.5,82.5 C 135.225,82.8425 135.725,83.8425 135,85.5C 133.961,84.7562 133.461,83.7562 133.5,82.5 Z"/></g>
<g><path style="opacity:1" fill="#5f0000" d="M 137.5,86.5 C 140.548,86.494 141.048,87.494 139,89.5C 137.961,88.7562 137.461,87.7562 137.5,86.5 Z"/></g>
<g><path style="opacity:1" fill="#232121" d="M 38.5,93.5 C 42.1299,93.7646 45.2966,95.0979 48,97.5C 49.0578,103.518 50.2245,109.518 51.5,115.5C 51.6578,117.319 50.9911,118.652 49.5,119.5C 48.7071,116.874 47.0405,115.04 44.5,114C 46.0317,111.67 45.6983,109.67 43.5,108C 45.9305,105.695 46.9305,102.862 46.5,99.5C 44.2478,98.6669 42.0811,98.6669 40,99.5C 37.5213,97.9116 37.0213,95.9116 38.5,93.5 Z"/></g>
<g><path style="opacity:1" fill="#222121" d="M 29.5,96.5 C 31.0257,97.1047 32.0257,98.2714 32.5,100C 36.6563,99.9978 39.6563,101.831 41.5,105.5C 37.9424,107.123 36.7757,109.79 38,113.5C 41.2079,117.044 44.7079,120.21 48.5,123C 48.1496,126.848 46.1496,129.348 42.5,130.5C 36.2158,130.888 30.2158,130.222 24.5,128.5C 20.4867,132.787 17.4867,132.287 15.5,127C 16.3079,125.294 17.6412,124.461 19.5,124.5C 19.67,123.178 19.3366,122.011 18.5,121C 19.7717,119.693 20.7717,118.193 21.5,116.5C 23.8152,116.314 26.1485,115.98 28.5,115.5C 27.2713,114.719 25.938,114.219 24.5,114C 25.677,111.842 25.0103,110.342 22.5,109.5C 20.444,110.048 18.7774,111.214 17.5,113C 15.3386,113.722 13.672,113.055 12.5,111C 12.1862,107.1 14.1862,104.6 18.5,103.5C 20.0982,103.61 21.7648,103.943 23.5,104.5C 23.8333,104.167 24.1667,103.833 24.5,103.5C 23.3595,101.922 22.8595,100.256 23,98.5C 25.6746,99.6881 27.8413,99.0215 29.5,96.5 Z"/></g>
<g><path style="opacity:1" fill="#5f0000" d="M 151.5,109.5 C 151.56,108.957 151.893,108.624 152.5,108.5C 154.933,109.73 157.433,110.73 160,111.5C 159.723,114.403 158.556,117.07 156.5,119.5C 154.29,116.413 152.623,113.08 151.5,109.5 Z"/></g>
<g><path style="opacity:1" fill="#5f0000" d="M 25.5,120.5 C 26.7759,121.386 26.7759,122.386 25.5,123.5C 22.9548,122.451 22.9548,121.451 25.5,120.5 Z"/></g>
<g><path style="opacity:1" fill="#5f0000" d="M 152.5,127.5 C 147.11,124.731 147.276,122.397 153,120.5C 153.018,122.797 152.851,125.131 152.5,127.5 Z"/></g>
<g><path style="opacity:1" fill="#5f0000" d="M 142.5,123.5 C 143.461,125.265 143.795,127.265 143.5,129.5C 141.833,129.5 140.167,129.5 138.5,129.5C 138.351,128.448 138.517,127.448 139,126.5C 140.518,125.837 141.685,124.837 142.5,123.5 Z"/></g>
<g><path style="opacity:1" fill="#fefffe" d="M 30.5,153.5 C 33.8934,153.062 36.8934,153.895 39.5,156C 38.8921,156.87 38.0588,157.37 37,157.5C 31.3139,155.428 28.4806,157.428 28.5,163.5C 28.9631,169.798 32.1298,171.798 38,169.5C 39.8524,171.23 39.6857,172.396 37.5,173C 27.1679,174.332 23.0012,169.832 25,159.5C 26.3597,156.977 28.193,154.977 30.5,153.5 Z"/></g>
<g><path style="opacity:1" fill="#fefffe" d="M 46.5,153.5 C 50.8884,152.943 54.0551,154.61 56,158.5C 57.4716,164.076 56.3049,168.909 52.5,173C 47.5724,174.643 44.0724,173.143 42,168.5C 41.3333,165.167 41.3333,161.833 42,158.5C 43.025,156.313 44.525,154.646 46.5,153.5 Z"/></g>
<g><path style="opacity:1" fill="#fefffe" d="M 59.5,153.5 C 61.288,153.215 62.9547,153.548 64.5,154.5C 65.901,159.203 67.401,163.87 69,168.5C 69.4993,163.511 69.6659,158.511 69.5,153.5C 70.5,153.5 71.5,153.5 72.5,153.5C 72.5,160.167 72.5,166.833 72.5,173.5C 70.712,173.785 69.0453,173.452 67.5,172.5C 66.099,167.797 64.599,163.13 63,158.5C 62.5007,163.489 62.3341,168.489 62.5,173.5C 61.5,173.5 60.5,173.5 59.5,173.5C 59.5,166.833 59.5,160.167 59.5,153.5 Z"/></g>
<g><path style="opacity:1" fill="#fefffe" d="M 75.5,153.5 C 80.5,153.5 85.5,153.5 90.5,153.5C 90.5,154.5 90.5,155.5 90.5,156.5C 88.5,156.5 86.5,156.5 84.5,156.5C 84.5,162.167 84.5,167.833 84.5,173.5C 83.5,173.5 82.5,173.5 81.5,173.5C 81.5,167.833 81.5,162.167 81.5,156.5C 79.5,156.5 77.5,156.5 75.5,156.5C 75.5,155.5 75.5,154.5 75.5,153.5 Z"/></g>
<g><path style="opacity:1" fill="#fefffe" d="M 93.5,153.5 C 97.8333,153.5 102.167,153.5 106.5,153.5C 106.5,154.5 106.5,155.5 106.5,156.5C 104.833,156.5 103.167,156.5 101.5,156.5C 101.5,161.167 101.5,165.833 101.5,170.5C 103.167,170.5 104.833,170.5 106.5,170.5C 106.5,171.5 106.5,172.5 106.5,173.5C 102.167,173.5 97.8333,173.5 93.5,173.5C 93.5,172.5 93.5,171.5 93.5,170.5C 95.1667,170.5 96.8333,170.5 98.5,170.5C 98.5,165.833 98.5,161.167 98.5,156.5C 96.8333,156.5 95.1667,156.5 93.5,156.5C 93.5,155.5 93.5,154.5 93.5,153.5 Z"/></g>
<g><path style="opacity:1" fill="#fefffe" d="M 110.5,153.5 C 112.288,153.215 113.955,153.548 115.5,154.5C 116.901,159.203 118.401,163.87 120,168.5C 120.499,163.511 120.666,158.511 120.5,153.5C 121.5,153.5 122.5,153.5 123.5,153.5C 123.5,160.167 123.5,166.833 123.5,173.5C 121.712,173.785 120.045,173.452 118.5,172.5C 117.099,167.797 115.599,163.13 114,158.5C 113.501,163.489 113.334,168.489 113.5,173.5C 112.5,173.5 111.5,173.5 110.5,173.5C 110.5,166.833 110.5,160.167 110.5,153.5 Z"/></g>
<g><path style="opacity:1" fill="#fefffe" d="M 127.5,153.5 C 132.167,153.5 136.833,153.5 141.5,153.5C 141.5,154.5 141.5,155.5 141.5,156.5C 138.167,156.5 134.833,156.5 131.5,156.5C 131.5,158.5 131.5,160.5 131.5,162.5C 133.833,162.5 136.167,162.5 138.5,162.5C 138.5,163.5 138.5,164.5 138.5,165.5C 136.167,165.5 133.833,165.5 131.5,165.5C 131.5,167.167 131.5,168.833 131.5,170.5C 134.833,170.5 138.167,170.5 141.5,170.5C 141.5,171.5 141.5,172.5 141.5,173.5C 136.833,173.5 132.167,173.5 127.5,173.5C 127.5,166.833 127.5,160.167 127.5,153.5 Z"/></g>
<g><path style="opacity:1" fill="#fefffe" d="M 144.5,153.5 C 146.288,153.215 147.955,153.548 149.5,154.5C 150.901,159.203 152.401,163.87 154,168.5C 154.499,163.511 154.666,158.511 154.5,153.5C 155.5,153.5 156.5,153.5 157.5,153.5C 157.5,160.167 157.5,166.833 157.5,173.5C 155.712,173.785 154.045,173.452 152.5,172.5C 151.099,167.797 149.599,163.13 148,158.5C 147.501,163.489 147.334,168.489 147.5,173.5C 146.5,173.5 145.5,173.5 144.5,173.5C 144.5,166.833 144.5,160.167 144.5,153.5 Z"/></g>
<g><path style="opacity:1" fill="#fefffe" d="M 160.5,153.5 C 165.5,153.5 170.5,153.5 175.5,153.5C 175.5,154.5 175.5,155.5 175.5,156.5C 173.5,156.5 171.5,156.5 169.5,156.5C 169.5,162.167 169.5,167.833 169.5,173.5C 168.5,173.5 167.5,173.5 166.5,173.5C 166.5,167.833 166.5,162.167 166.5,156.5C 164.5,156.5 162.5,156.5 160.5,156.5C 160.5,155.5 160.5,154.5 160.5,153.5 Z"/></g>
<g><path style="opacity:1" fill="#212221" d="M 47.5,156.5 C 49.3904,156.297 50.8904,156.963 52,158.5C 52.6667,161.833 52.6667,165.167 52,168.5C 50,171.167 48,171.167 46,168.5C 44.994,164.198 45.494,160.198 47.5,156.5 Z"/></g>
</svg>
