<?xml version="1.0" encoding="UTF-8"?>
<!DOCTYPE svg PUBLIC "-//W3C//DTD SVG 1.1//EN" "http://www.w3.org/Graphics/SVG/1.1/DTD/svg11.dtd">
<svg xmlns="http://www.w3.org/2000/svg" version="1.1" width="200px" height="200px" style="shape-rendering:geometricPrecision; text-rendering:geometricPrecision; image-rendering:optimizeQuality; fill-rule:evenodd; clip-rule:evenodd" xmlns:xlink="http://www.w3.org/1999/xlink">
<g><path style="opacity:0.998" fill="#222222" d="M 8.5,-0.5 C 69.1667,-0.5 129.833,-0.5 190.5,-0.5C 194.58,1.91067 197.58,5.244 199.5,9.5C 199.5,69.8333 199.5,130.167 199.5,190.5C 196.789,194.212 193.456,197.212 189.5,199.5C 129.5,199.5 69.5,199.5 9.5,199.5C 5.54423,197.212 2.21089,194.212 -0.5,190.5C -0.5,130.167 -0.5,69.8333 -0.5,9.5C 1.42004,5.244 4.42004,1.91067 8.5,-0.5 Z"/></g>
<g><path style="opacity:1" fill="#b6a444" d="M 15.5,9.5 C 71.501,9.33334 127.501,9.50001 183.5,10C 186.381,11.2506 188.214,13.4173 189,16.5C 189.5,57.4986 189.667,98.4986 189.5,139.5C 163.491,139.833 137.491,139.5 111.5,138.5C 109.192,135.025 106.692,131.692 104,128.5C 103.505,126.527 103.338,124.527 103.5,122.5C 99.8333,122.5 96.1667,122.5 92.5,122.5C 92.3741,112.151 91.8741,101.818 91,91.5C 90,89.5 89,87.5 88,85.5C 87.3333,77.1667 87.3333,68.8333 88,60.5C 93.0374,58.3979 97.8707,55.8979 102.5,53C 108.109,52.6277 113.109,54.2944 117.5,58C 119.167,58.3333 120.833,58.6667 122.5,59C 121.333,59.5 120.5,60.3333 120,61.5C 115.397,75.1409 110.897,88.8076 106.5,102.5C 103.5,103.167 100.5,103.833 97.5,104.5C 104.803,112.944 114.137,116.944 125.5,116.5C 133.359,116.692 140.692,114.858 147.5,111C 149.684,108.984 151.684,106.817 153.5,104.5C 150.833,103.833 148.167,103.167 145.5,102.5C 140.901,88.5363 136.401,74.5363 132,60.5C 130.933,59.8095 129.766,59.3095 128.5,59C 133.044,56.7278 135.044,53.2278 134.5,48.5C 132.807,50.0267 130.973,51.3601 129,52.5C 126.724,49.9364 124.724,50.2697 123,53.5C 119.535,51.0374 116.369,48.2041 113.5,45C 111.275,43.8694 108.942,43.0361 106.5,42.5C 99.8192,44.1702 93.1525,45.8369 86.5,47.5C 86.335,44.1501 86.5017,40.8168 87,37.5C 93.7448,33.531 94.9115,28.3643 90.5,22C 83.1524,18.5202 78.1524,20.5202 75.5,28C 75.9736,32.7863 78.4736,35.953 83,37.5C 83.4983,40.8168 83.665,44.1501 83.5,47.5C 76.7521,45.438 69.9187,43.7713 63,42.5C 60.26,43.144 57.76,44.3107 55.5,46C 52.938,49.0652 49.938,51.5652 46.5,53.5C 45.0479,50.516 42.8812,49.8493 40,51.5C 38.7147,51.0496 37.548,50.3829 36.5,49.5C 35.3861,50.723 35.2195,52.0563 36,53.5C 37.6851,55.0175 39.1851,56.6841 40.5,58.5C 39.3717,59.2621 38.2051,59.9288 37,60.5C 32.3925,74.8213 27.8925,89.1546 23.5,103.5C 20.4281,103.183 17.4281,103.516 14.5,104.5C 18.3226,110.248 23.6559,113.748 30.5,115C 45.8415,119.165 59.1749,115.831 70.5,105C 67.7284,104.474 65.0618,103.641 62.5,102.5C 58.1026,88.8076 53.6026,75.1409 49,61.5C 48.5,60.3333 47.6667,59.5 46.5,59C 52.0526,58.3907 57.0526,56.3907 61.5,53C 64.2567,52.4163 66.9234,52.7496 69.5,54C 73.6798,56.8399 78.1798,59.0066 83,60.5C 83.6667,68.5 83.6667,76.5 83,84.5C 81.6667,87.1667 80.3333,89.8333 79,92.5C 78.5002,102.494 78.3335,112.494 78.5,122.5C 74.1667,122.5 69.8333,122.5 65.5,122.5C 65.202,128.437 63.202,133.77 59.5,138.5C 42.8467,139.499 26.18,139.833 9.5,139.5C 9.33334,98.4986 9.50001,57.4986 10,16.5C 10.9668,13.3794 12.8001,11.046 15.5,9.5 Z"/></g>
<g><path style="opacity:1" fill="#b6a444" d="M 123.5,64.5 C 124.495,77.3226 124.829,90.3226 124.5,103.5C 119.821,103.666 115.155,103.499 110.5,103C 115.137,90.2553 119.47,77.4219 123.5,64.5 Z"/></g>
<g><path style="opacity:1" fill="#b6a444" d="M 39.5,65.5 C 40.4954,77.989 40.8287,90.6557 40.5,103.5C 36.1539,103.666 31.8206,103.499 27.5,103C 31.7919,90.6231 35.7919,78.1231 39.5,65.5 Z"/></g>
<g><path style="opacity:1" fill="#b6a444" d="M 45.5,65.5 C 49.7051,77.9452 54.0385,90.4452 58.5,103C 54.1794,103.499 49.8461,103.666 45.5,103.5C 44.8976,90.809 44.8976,78.1424 45.5,65.5 Z"/></g>
<g><path style="opacity:1" fill="#b6a444" d="M 128.5,65.5 C 133.107,77.8172 137.44,90.3172 141.5,103C 137.179,103.499 132.846,103.666 128.5,103.5C 128.5,90.8333 128.5,78.1667 128.5,65.5 Z"/></g>
<g><path style="opacity:1" fill="#452725" d="M 39.5,65.5 C 39.56,64.9569 39.8933,64.6236 40.5,64.5C 41.8252,77.6606 41.8252,90.6606 40.5,103.5C 40.8287,90.6557 40.4954,77.989 39.5,65.5 Z"/></g>
<g><path style="opacity:1" fill="#fefffe" d="M 31.5,157.5 C 36.1667,157.5 40.8333,157.5 45.5,157.5C 45.5,158.5 45.5,159.5 45.5,160.5C 42.1667,160.5 38.8333,160.5 35.5,160.5C 35.5,162.5 35.5,164.5 35.5,166.5C 37.8333,166.5 40.1667,166.5 42.5,166.5C 42.5,167.5 42.5,168.5 42.5,169.5C 40.1667,169.5 37.8333,169.5 35.5,169.5C 35.5,171.167 35.5,172.833 35.5,174.5C 38.8333,174.5 42.1667,174.5 45.5,174.5C 45.5,175.5 45.5,176.5 45.5,177.5C 40.8333,177.5 36.1667,177.5 31.5,177.5C 31.5,170.833 31.5,164.167 31.5,157.5 Z"/></g>
<g><path style="opacity:1" fill="#fefffe" d="M 52.5,157.5 C 56.8884,156.943 60.0551,158.61 62,162.5C 63.9777,169.259 62.1444,174.593 56.5,178.5C 57.6685,180.217 59.3352,180.884 61.5,180.5C 61.5,181.5 61.5,182.5 61.5,183.5C 59.4086,183.682 57.4086,183.348 55.5,182.5C 53.4137,178.869 50.9137,175.535 48,172.5C 47.3333,169.167 47.3333,165.833 48,162.5C 49.025,160.313 50.525,158.646 52.5,157.5 Z"/></g>
<g><path style="opacity:1" fill="#fefffe" d="M 65.5,157.5 C 66.5,157.5 67.5,157.5 68.5,157.5C 68.3341,162.511 68.5007,167.511 69,172.5C 70.916,175.033 72.916,175.033 75,172.5C 75.4993,167.511 75.6659,162.511 75.5,157.5C 76.5,157.5 77.5,157.5 78.5,157.5C 78.6661,163.176 78.4994,168.843 78,174.5C 74,178.5 70,178.5 66,174.5C 65.5006,168.843 65.3339,163.176 65.5,157.5 Z"/></g>
<g><path style="opacity:1" fill="#fefffe" d="M 86.5,157.5 C 88.1667,157.5 89.8333,157.5 91.5,157.5C 93.1667,164.167 94.8333,170.833 96.5,177.5C 93.5,177.833 92.1667,176.5 92.5,173.5C 90.1667,173.5 87.8333,173.5 85.5,173.5C 85.8333,176.5 84.5,177.833 81.5,177.5C 83.1667,170.833 84.8333,164.167 86.5,157.5 Z"/></g>
<g><path style="opacity:1" fill="#fefffe" d="M 99.5,157.5 C 100.833,157.5 102.167,157.5 103.5,157.5C 103.5,163.167 103.5,168.833 103.5,174.5C 106.833,174.5 110.167,174.5 113.5,174.5C 113.5,175.5 113.5,176.5 113.5,177.5C 108.833,177.5 104.167,177.5 99.5,177.5C 99.5,170.833 99.5,164.167 99.5,157.5 Z"/></g>
<g><path style="opacity:1" fill="#fefffe" d="M 116.5,157.5 C 120.833,157.5 125.167,157.5 129.5,157.5C 129.5,158.5 129.5,159.5 129.5,160.5C 127.833,160.5 126.167,160.5 124.5,160.5C 124.5,165.167 124.5,169.833 124.5,174.5C 126.167,174.5 127.833,174.5 129.5,174.5C 129.5,175.5 129.5,176.5 129.5,177.5C 125.167,177.5 120.833,177.5 116.5,177.5C 116.5,176.5 116.5,175.5 116.5,174.5C 118.167,174.5 119.833,174.5 121.5,174.5C 121.5,169.833 121.5,165.167 121.5,160.5C 119.833,160.5 118.167,160.5 116.5,160.5C 116.5,159.5 116.5,158.5 116.5,157.5 Z"/></g>
<g><path style="opacity:1" fill="#fefffe" d="M 132.5,157.5 C 137.5,157.5 142.5,157.5 147.5,157.5C 147.5,158.5 147.5,159.5 147.5,160.5C 145.5,160.5 143.5,160.5 141.5,160.5C 141.5,166.167 141.5,171.833 141.5,177.5C 140.5,177.5 139.5,177.5 138.5,177.5C 138.5,171.833 138.5,166.167 138.5,160.5C 136.5,160.5 134.5,160.5 132.5,160.5C 132.5,159.5 132.5,158.5 132.5,157.5 Z"/></g>
<g><path style="opacity:1" fill="#fefffe" d="M 148.5,158.5 C 149.884,157.199 151.384,157.199 153,158.5C 154.139,161.583 155.472,164.583 157,167.5C 158.528,164.583 159.861,161.583 161,158.5C 162.388,157.446 163.888,157.28 165.5,158C 161.298,163.889 158.965,170.389 158.5,177.5C 157.5,177.5 156.5,177.5 155.5,177.5C 155.123,170.419 152.79,164.086 148.5,158.5 Z"/></g>
<g><path style="opacity:1" fill="#212221" d="M 53.5,160.5 C 55.3904,160.297 56.8904,160.963 58,162.5C 58.6667,165.833 58.6667,169.167 58,172.5C 56,175.167 54,175.167 52,172.5C 50.994,168.198 51.494,164.198 53.5,160.5 Z"/></g>
<g><path style="opacity:1" fill="#212221" d="M 88.5,161.5 C 89.7908,163.949 90.7908,166.616 91.5,169.5C 89.8333,170.833 88.1667,170.833 86.5,169.5C 87.4822,166.904 88.1489,164.238 88.5,161.5 Z"/></g>
</svg>
