<?xml version="1.0" encoding="UTF-8"?>
<!DOCTYPE svg PUBLIC "-//W3C//DTD SVG 1.1//EN" "http://www.w3.org/Graphics/SVG/1.1/DTD/svg11.dtd">
<svg xmlns="http://www.w3.org/2000/svg" version="1.1" width="200px" height="200px" style="shape-rendering:geometricPrecision; text-rendering:geometricPrecision; image-rendering:optimizeQuality; fill-rule:evenodd; clip-rule:evenodd" xmlns:xlink="http://www.w3.org/1999/xlink">
<g><path style="opacity:0.998" fill="#212121" d="M 8.5,-0.5 C 69.1667,-0.5 129.833,-0.5 190.5,-0.5C 194.58,1.91067 197.58,5.244 199.5,9.5C 199.5,69.8333 199.5,130.167 199.5,190.5C 196.789,194.212 193.456,197.212 189.5,199.5C 129.5,199.5 69.5,199.5 9.5,199.5C 5.54423,197.212 2.21089,194.212 -0.5,190.5C -0.5,130.167 -0.5,69.8333 -0.5,9.5C 1.42004,5.244 4.42004,1.91067 8.5,-0.5 Z"/></g>
<g><path style="opacity:1" fill="#e17a35" d="M 15.5,9.5 C 72.2502,9.00822 128.917,9.50822 185.5,11C 187.049,12.214 188.215,13.714 189,15.5C 189.5,56.832 189.667,98.1653 189.5,139.5C 129.5,139.5 69.5,139.5 9.5,139.5C 9.33334,98.1653 9.50001,56.832 10,15.5C 11.3597,12.9774 13.193,10.9774 15.5,9.5 Z"/></g>
<g><path style="opacity:1" fill="#222222" d="M 139.5,15.5 C 142.271,15.4207 144.937,15.9207 147.5,17C 152.667,21.5 157.833,26 163,30.5C 165.12,34.3662 164.786,38.0329 162,41.5C 152.196,50.3029 142.696,59.4695 133.5,69C 125.898,70.6353 119.231,74.1353 113.5,79.5C 110.394,85.3791 107.56,91.3791 105,97.5C 102.567,100.683 100.067,103.849 97.5,107C 87.6538,114.091 77.9871,121.424 68.5,129C 64.6492,131.635 60.6492,131.969 56.5,130C 50.5901,124.761 45.4234,118.928 41,112.5C 40.5162,110.087 40.8495,107.754 42,105.5C 51.2166,97.949 60.7166,90.7824 70.5,84C 73.4762,78.547 76.3095,73.047 79,67.5C 79.4828,68.448 79.6495,69.448 79.5,70.5C 81.5914,70.6816 83.5914,70.3482 85.5,69.5C 85.8333,70 86.1667,70.5 86.5,71C 85.1726,73.453 84.3393,75.953 84,78.5C 89.5973,81.7615 94.2639,86.0948 98,91.5C 100.86,85.9187 103.526,80.2521 106,74.5C 109.922,71.7886 113.756,68.9553 117.5,66C 112.685,62.352 108.352,58.1853 104.5,53.5C 101.5,55.5 98.5,57.5 95.5,59.5C 93.677,58.2528 91.677,57.5861 89.5,57.5C 89.178,55.2776 89.8446,53.4443 91.5,52C 96.672,48.9148 101.672,45.5814 106.5,42C 108.167,41.6667 109.833,41.3333 111.5,41C 120.155,31.5008 129.488,23.0008 139.5,15.5 Z"/></g>
<g><path style="opacity:1" fill="#de7835" d="M 141.5,23.5 C 146.467,27.1322 151.133,31.1322 155.5,35.5C 147.526,43.139 139.526,50.8057 131.5,58.5C 128.028,53.5283 124.028,49.0283 119.5,45C 126.729,37.6034 134.062,30.4368 141.5,23.5 Z"/></g>
<g><path style="opacity:1" fill="#212221" d="M 79.5,51.5 C 81.6086,52.0524 82.4419,53.3858 82,55.5C 79.4229,54.8347 78.5896,53.5014 79.5,51.5 Z"/></g>
<g><path style="opacity:1" fill="#212221" d="M 67.5,56.5 C 80.3716,59.8048 80.3716,61.4714 67.5,61.5C 67.5,59.8333 67.5,58.1667 67.5,56.5 Z"/></g>
<g><path style="opacity:1" fill="#cb6e30" d="M 79.5,85.5 C 81.5441,86.0312 83.2107,87.1978 84.5,89C 81.4277,89.7995 79.7611,88.6329 79.5,85.5 Z"/></g>
<g><path style="opacity:1" fill="#de7835" d="M 71.5,92.5 C 77.487,96.0605 83.8203,99.0605 90.5,101.5C 80.8573,108.642 71.3573,115.975 62,123.5C 57.4657,119.301 53.299,114.801 49.5,110C 57.0851,104.388 64.4184,98.5545 71.5,92.5 Z"/></g>
<g><path style="opacity:1" fill="#fefffe" d="M 9.5,155.5 C 14.1667,155.5 18.8333,155.5 23.5,155.5C 23.5,156.5 23.5,157.5 23.5,158.5C 20.1667,158.5 16.8333,158.5 13.5,158.5C 13.5,160.5 13.5,162.5 13.5,164.5C 15.8333,164.5 18.1667,164.5 20.5,164.5C 20.5,165.5 20.5,166.5 20.5,167.5C 18.1667,167.5 15.8333,167.5 13.5,167.5C 13.5,170.167 13.5,172.833 13.5,175.5C 12.1667,175.5 10.8333,175.5 9.5,175.5C 9.5,168.833 9.5,162.167 9.5,155.5 Z"/></g>
<g><path style="opacity:1" fill="#fefffe" d="M 26.5,155.5 C 27.8333,155.5 29.1667,155.5 30.5,155.5C 30.5,161.167 30.5,166.833 30.5,172.5C 33.8333,172.5 37.1667,172.5 40.5,172.5C 40.5,173.5 40.5,174.5 40.5,175.5C 35.8333,175.5 31.1667,175.5 26.5,175.5C 26.5,168.833 26.5,162.167 26.5,155.5 Z"/></g>
<g><path style="opacity:1" fill="#fefffe" d="M 43.5,155.5 C 48.1667,155.5 52.8333,155.5 57.5,155.5C 57.5,156.5 57.5,157.5 57.5,158.5C 54.1667,158.5 50.8333,158.5 47.5,158.5C 47.5,160.5 47.5,162.5 47.5,164.5C 49.8333,164.5 52.1667,164.5 54.5,164.5C 54.5,165.5 54.5,166.5 54.5,167.5C 52.1667,167.5 49.8333,167.5 47.5,167.5C 47.5,169.167 47.5,170.833 47.5,172.5C 50.8333,172.5 54.1667,172.5 57.5,172.5C 57.5,173.5 57.5,174.5 57.5,175.5C 52.8333,175.5 48.1667,175.5 43.5,175.5C 43.5,168.833 43.5,162.167 43.5,155.5 Z"/></g>
<g><path style="opacity:1" fill="#fefffe" d="M 59.5,156.5 C 60.6009,155.402 61.9343,155.235 63.5,156C 64.7938,158.087 65.9605,160.254 67,162.5C 68.0395,160.254 69.2062,158.087 70.5,156C 71.8333,155.333 73.1667,155.333 74.5,156C 72.5,159.333 70.5,162.667 68.5,166C 70.8922,168.728 72.8922,171.728 74.5,175C 73.1667,175.667 71.8333,175.667 70.5,175C 69.2062,172.913 68.0395,170.746 67,168.5C 65.9605,170.746 64.7938,172.913 63.5,175C 62.1667,175.667 60.8333,175.667 59.5,175C 61.1078,171.728 63.1078,168.728 65.5,166C 63.6369,162.66 61.6369,159.493 59.5,156.5 Z"/></g>
<g><path style="opacity:1" fill="#fefffe" d="M 77.5,155.5 C 81.8333,155.5 86.1667,155.5 90.5,155.5C 90.5,156.5 90.5,157.5 90.5,158.5C 88.8333,158.5 87.1667,158.5 85.5,158.5C 85.5,163.167 85.5,167.833 85.5,172.5C 87.1667,172.5 88.8333,172.5 90.5,172.5C 90.5,173.5 90.5,174.5 90.5,175.5C 86.1667,175.5 81.8333,175.5 77.5,175.5C 77.5,174.5 77.5,173.5 77.5,172.5C 79.1667,172.5 80.8333,172.5 82.5,172.5C 82.5,167.833 82.5,163.167 82.5,158.5C 80.8333,158.5 79.1667,158.5 77.5,158.5C 77.5,157.5 77.5,156.5 77.5,155.5 Z"/></g>
<g><path style="opacity:1" fill="#fefffe" d="M 94.5,155.5 C 97.8499,155.335 101.183,155.502 104.5,156C 108.885,160.128 108.218,163.128 102.5,165C 106.057,164.896 108.057,166.563 108.5,170C 108.516,172.305 107.516,173.972 105.5,175C 101.848,175.499 98.1817,175.665 94.5,175.5C 94.5,168.833 94.5,162.167 94.5,155.5 Z"/></g>
<g><path style="opacity:1" fill="#fefffe" d="M 111.5,155.5 C 115.833,155.5 120.167,155.5 124.5,155.5C 124.5,156.5 124.5,157.5 124.5,158.5C 122.833,158.5 121.167,158.5 119.5,158.5C 119.5,163.167 119.5,167.833 119.5,172.5C 121.167,172.5 122.833,172.5 124.5,172.5C 124.5,173.5 124.5,174.5 124.5,175.5C 120.167,175.5 115.833,175.5 111.5,175.5C 111.5,174.5 111.5,173.5 111.5,172.5C 113.167,172.5 114.833,172.5 116.5,172.5C 116.5,167.833 116.5,163.167 116.5,158.5C 114.833,158.5 113.167,158.5 111.5,158.5C 111.5,157.5 111.5,156.5 111.5,155.5 Z"/></g>
<g><path style="opacity:1" fill="#fefffe" d="M 128.5,155.5 C 129.833,155.5 131.167,155.5 132.5,155.5C 132.5,161.167 132.5,166.833 132.5,172.5C 135.833,172.5 139.167,172.5 142.5,172.5C 142.5,173.5 142.5,174.5 142.5,175.5C 137.833,175.5 133.167,175.5 128.5,175.5C 128.5,168.833 128.5,162.167 128.5,155.5 Z"/></g>
<g><path style="opacity:1" fill="#fefffe" d="M 145.5,155.5 C 149.833,155.5 154.167,155.5 158.5,155.5C 158.5,156.5 158.5,157.5 158.5,158.5C 156.833,158.5 155.167,158.5 153.5,158.5C 153.5,163.167 153.5,167.833 153.5,172.5C 155.167,172.5 156.833,172.5 158.5,172.5C 158.5,173.5 158.5,174.5 158.5,175.5C 154.167,175.5 149.833,175.5 145.5,175.5C 145.5,174.5 145.5,173.5 145.5,172.5C 147.167,172.5 148.833,172.5 150.5,172.5C 150.5,167.833 150.5,163.167 150.5,158.5C 148.833,158.5 147.167,158.5 145.5,158.5C 145.5,157.5 145.5,156.5 145.5,155.5 Z"/></g>
<g><path style="opacity:1" fill="#fefffe" d="M 161.5,155.5 C 166.5,155.5 171.5,155.5 176.5,155.5C 176.5,156.5 176.5,157.5 176.5,158.5C 174.5,158.5 172.5,158.5 170.5,158.5C 170.5,164.167 170.5,169.833 170.5,175.5C 169.5,175.5 168.5,175.5 167.5,175.5C 167.5,169.833 167.5,164.167 167.5,158.5C 165.5,158.5 163.5,158.5 161.5,158.5C 161.5,157.5 161.5,156.5 161.5,155.5 Z"/></g>
<g><path style="opacity:1" fill="#fefffe" d="M 177.5,156.5 C 178.884,155.199 180.384,155.199 182,156.5C 183.139,159.583 184.472,162.583 186,165.5C 187.528,162.583 188.861,159.583 190,156.5C 191.388,155.446 192.888,155.28 194.5,156C 190.298,161.889 187.965,168.389 187.5,175.5C 186.5,175.5 185.5,175.5 184.5,175.5C 184.123,168.419 181.79,162.086 177.5,156.5 Z"/></g>
<g><path style="opacity:1" fill="#212221" d="M 98.5,158.5 C 102.676,157.831 104.009,159.331 102.5,163C 101.207,163.49 99.8734,163.657 98.5,163.5C 98.5,161.833 98.5,160.167 98.5,158.5 Z"/></g>
<g><path style="opacity:1" fill="#212221" d="M 98.5,166.5 C 101.596,165.907 103.929,166.907 105.5,169.5C 103.929,172.093 101.596,173.093 98.5,172.5C 98.5,170.5 98.5,168.5 98.5,166.5 Z"/></g>
</svg>
