<?xml version="1.0" encoding="UTF-8"?>
<!DOCTYPE svg PUBLIC "-//W3C//DTD SVG 1.1//EN" "http://www.w3.org/Graphics/SVG/1.1/DTD/svg11.dtd">
<svg xmlns="http://www.w3.org/2000/svg" version="1.1" width="200px" height="200px" style="shape-rendering:geometricPrecision; text-rendering:geometricPrecision; image-rendering:optimizeQuality; fill-rule:evenodd; clip-rule:evenodd" xmlns:xlink="http://www.w3.org/1999/xlink">
<g><path style="opacity:0.999" fill="#212222" d="M 8.5,-0.5 C 69.1667,-0.5 129.833,-0.5 190.5,-0.5C 194.58,1.91067 197.58,5.244 199.5,9.5C 199.5,69.8333 199.5,130.167 199.5,190.5C 196.789,194.212 193.456,197.212 189.5,199.5C 129.5,199.5 69.5,199.5 9.5,199.5C 5.54423,197.212 2.21089,194.212 -0.5,190.5C -0.5,130.167 -0.5,69.8333 -0.5,9.5C 1.42004,5.244 4.42004,1.91067 8.5,-0.5 Z"/></g>
<g><path style="opacity:1" fill="#7e0036" d="M 19.5,9.5 C 43.169,9.33337 66.8357,9.50003 90.5,10C 63.543,49.4134 36.7096,88.9134 10,128.5C 9.33333,92.1667 9.33333,55.8333 10,19.5C 11.0143,13.9883 14.1809,10.655 19.5,9.5 Z"/></g>
<g><path style="opacity:1" fill="#7e0036" d="M 107.5,10.5 C 131.33,9.33682 155.33,9.17015 179.5,10C 183.115,10.6135 185.949,12.4469 188,15.5C 189.642,53.4533 189.975,91.4533 189,129.5C 161.97,89.6551 134.804,49.9884 107.5,10.5 Z"/></g>
<g><path style="opacity:1" fill="#7e0036" d="M 98.5,15.5 C 106.268,26.1788 113.934,37.0122 121.5,48C 106.5,48.6667 91.5,48.6667 76.5,48C 84.2147,37.3973 91.548,26.564 98.5,15.5 Z"/></g>
<g><path style="opacity:1" fill="#7e0036" d="M 69.5,58.5 C 89.1695,58.3334 108.836,58.5 128.5,59C 134.043,67.2539 139.71,75.4205 145.5,83.5C 114.5,84.8333 83.5,84.8333 52.5,83.5C 58.424,75.3111 64.0907,66.9777 69.5,58.5 Z"/></g>
<g><path style="opacity:1" fill="#7e0036" d="M 44.5,94.5 C 80.8394,94.1668 117.173,94.5001 153.5,95.5C 158.833,103.167 164.167,110.833 169.5,118.5C 122.504,119.667 75.5035,119.833 28.5,119C 34.0823,110.933 39.4156,102.766 44.5,94.5 Z"/></g>
<g><path style="opacity:1" fill="#7e0036" d="M 20.5,129.5 C 72.8376,129.167 125.171,129.5 177.5,130.5C 179.043,133.086 180.709,135.586 182.5,138C 126.833,138.667 71.1667,138.667 15.5,138C 17.568,135.358 19.2347,132.525 20.5,129.5 Z"/></g>
<g><path style="opacity:1" fill="#fefffe" d="M 22.5,156.5 C 23.5,156.5 24.5,156.5 25.5,156.5C 25.5,159.5 25.5,162.5 25.5,165.5C 27.8333,165.5 30.1667,165.5 32.5,165.5C 32.5,162.5 32.5,159.5 32.5,156.5C 33.5,156.5 34.5,156.5 35.5,156.5C 35.5,163.167 35.5,169.833 35.5,176.5C 34.5,176.5 33.5,176.5 32.5,176.5C 32.5,173.833 32.5,171.167 32.5,168.5C 30.1667,168.5 27.8333,168.5 25.5,168.5C 25.5,171.167 25.5,173.833 25.5,176.5C 24.5,176.5 23.5,176.5 22.5,176.5C 22.5,169.833 22.5,163.167 22.5,156.5 Z"/></g>
<g><path style="opacity:1" fill="#fefffe" d="M 39.5,156.5 C 43.8333,156.5 48.1667,156.5 52.5,156.5C 52.5,157.5 52.5,158.5 52.5,159.5C 50.8333,159.5 49.1667,159.5 47.5,159.5C 47.5,164.167 47.5,168.833 47.5,173.5C 49.1667,173.5 50.8333,173.5 52.5,173.5C 52.5,174.5 52.5,175.5 52.5,176.5C 48.1667,176.5 43.8333,176.5 39.5,176.5C 39.5,175.5 39.5,174.5 39.5,173.5C 41.1667,173.5 42.8333,173.5 44.5,173.5C 44.5,168.833 44.5,164.167 44.5,159.5C 42.8333,159.5 41.1667,159.5 39.5,159.5C 39.5,158.5 39.5,157.5 39.5,156.5 Z"/></g>
<g><path style="opacity:1" fill="#fefffe" d="M 56.5,156.5 C 61.1667,156.5 65.8333,156.5 70.5,156.5C 70.5,157.5 70.5,158.5 70.5,159.5C 67.1667,159.5 63.8333,159.5 60.5,159.5C 60.5,161.5 60.5,163.5 60.5,165.5C 62.8333,165.5 65.1667,165.5 67.5,165.5C 67.5,166.5 67.5,167.5 67.5,168.5C 65.1667,168.5 62.8333,168.5 60.5,168.5C 60.5,170.167 60.5,171.833 60.5,173.5C 63.8333,173.5 67.1667,173.5 70.5,173.5C 70.5,174.5 70.5,175.5 70.5,176.5C 65.8333,176.5 61.1667,176.5 56.5,176.5C 56.5,169.833 56.5,163.167 56.5,156.5 Z"/></g>
<g><path style="opacity:1" fill="#fefffe" d="M 73.5,156.5 C 77.9113,156.021 82.078,156.688 86,158.5C 87.9801,162.429 87.4801,166.096 84.5,169.5C 85.5,171.5 86.5,173.5 87.5,175.5C 86.1667,176.833 84.8333,176.833 83.5,175.5C 82.8149,171.382 80.4816,169.382 76.5,169.5C 76.5,171.833 76.5,174.167 76.5,176.5C 75.5,176.5 74.5,176.5 73.5,176.5C 73.5,169.833 73.5,163.167 73.5,156.5 Z"/></g>
<g><path style="opacity:1" fill="#fefffe" d="M 94.5,156.5 C 96.1667,156.5 97.8333,156.5 99.5,156.5C 101.167,163.167 102.833,169.833 104.5,176.5C 101.5,176.833 100.167,175.5 100.5,172.5C 98.1667,172.5 95.8333,172.5 93.5,172.5C 93.8333,175.5 92.5,176.833 89.5,176.5C 91.1667,169.833 92.8333,163.167 94.5,156.5 Z"/></g>
<g><path style="opacity:1" fill="#fefffe" d="M 107.5,156.5 C 111.911,156.021 116.078,156.688 120,158.5C 121.98,162.429 121.48,166.096 118.5,169.5C 119.5,171.5 120.5,173.5 121.5,175.5C 120.167,176.833 118.833,176.833 117.5,175.5C 116.815,171.382 114.482,169.382 110.5,169.5C 110.5,171.833 110.5,174.167 110.5,176.5C 109.5,176.5 108.5,176.5 107.5,176.5C 107.5,169.833 107.5,163.167 107.5,156.5 Z"/></g>
<g><path style="opacity:1" fill="#fefffe" d="M 129.5,156.5 C 132.893,156.062 135.893,156.895 138.5,159C 137.892,159.87 137.059,160.37 136,160.5C 130.314,158.428 127.481,160.428 127.5,166.5C 127.963,172.798 131.13,174.798 137,172.5C 138.852,174.23 138.686,175.396 136.5,176C 126.168,177.332 122.001,172.832 124,162.5C 125.36,159.977 127.193,157.977 129.5,156.5 Z"/></g>
<g><path style="opacity:1" fill="#fefffe" d="M 141.5,156.5 C 142.5,156.5 143.5,156.5 144.5,156.5C 144.5,159.5 144.5,162.5 144.5,165.5C 146.833,165.5 149.167,165.5 151.5,165.5C 151.5,162.5 151.5,159.5 151.5,156.5C 152.5,156.5 153.5,156.5 154.5,156.5C 154.5,163.167 154.5,169.833 154.5,176.5C 153.5,176.5 152.5,176.5 151.5,176.5C 151.5,173.833 151.5,171.167 151.5,168.5C 149.167,168.5 146.833,168.5 144.5,168.5C 144.5,171.167 144.5,173.833 144.5,176.5C 143.5,176.5 142.5,176.5 141.5,176.5C 141.5,169.833 141.5,163.167 141.5,156.5 Z"/></g>
<g><path style="opacity:1" fill="#fefffe" d="M 156.5,157.5 C 157.884,156.199 159.384,156.199 161,157.5C 162.139,160.583 163.472,163.583 165,166.5C 166.528,163.583 167.861,160.583 169,157.5C 170.388,156.446 171.888,156.28 173.5,157C 169.298,162.889 166.965,169.389 166.5,176.5C 165.5,176.5 164.5,176.5 163.5,176.5C 163.123,169.419 160.79,163.086 156.5,157.5 Z"/></g>
<g><path style="opacity:1" fill="#212221" d="M 76.5,159.5 C 82.6624,158.156 84.6624,160.322 82.5,166C 80.5273,166.495 78.5273,166.662 76.5,166.5C 76.5,164.167 76.5,161.833 76.5,159.5 Z"/></g>
<g><path style="opacity:1" fill="#212221" d="M 110.5,159.5 C 116.662,158.156 118.662,160.322 116.5,166C 114.527,166.495 112.527,166.662 110.5,166.5C 110.5,164.167 110.5,161.833 110.5,159.5 Z"/></g>
<g><path style="opacity:1" fill="#212221" d="M 96.5,160.5 C 97.7908,162.949 98.7908,165.616 99.5,168.5C 97.8333,169.833 96.1667,169.833 94.5,168.5C 95.4822,165.904 96.1489,163.238 96.5,160.5 Z"/></g>
</svg>
