<?xml version="1.0" encoding="UTF-8"?>
<!DOCTYPE svg PUBLIC "-//W3C//DTD SVG 1.1//EN" "http://www.w3.org/Graphics/SVG/1.1/DTD/svg11.dtd">
<svg xmlns="http://www.w3.org/2000/svg" version="1.1" width="200px" height="200px" style="shape-rendering:geometricPrecision; text-rendering:geometricPrecision; image-rendering:optimizeQuality; fill-rule:evenodd; clip-rule:evenodd" xmlns:xlink="http://www.w3.org/1999/xlink">
<g><path style="opacity:0.998" fill="#212121" d="M 8.5,-0.5 C 69.1667,-0.5 129.833,-0.5 190.5,-0.5C 194.58,1.91067 197.58,5.244 199.5,9.5C 199.5,69.8333 199.5,130.167 199.5,190.5C 196.789,194.212 193.456,197.212 189.5,199.5C 129.5,199.5 69.5,199.5 9.5,199.5C 5.54423,197.212 2.21089,194.212 -0.5,190.5C -0.5,130.167 -0.5,69.8333 -0.5,9.5C 1.42004,5.244 4.42004,1.91067 8.5,-0.5 Z"/></g>
<g><path style="opacity:1" fill="#5a2f6f" d="M 15.5,9.5 C 72.2502,9.00822 128.917,9.50822 185.5,11C 187.049,12.214 188.215,13.714 189,15.5C 189.5,56.832 189.667,98.1653 189.5,139.5C 129.5,139.5 69.5,139.5 9.5,139.5C 9.33334,98.1653 9.50001,56.832 10,15.5C 11.3597,12.9774 13.193,10.9774 15.5,9.5 Z"/></g>
<g><path style="opacity:1" fill="#41274e" d="M 109.5,28.5 C 110.913,25.5809 112.913,23.0809 115.5,21C 114.5,20.3333 113.5,20.3333 112.5,21C 108.732,24.4281 106.232,28.5948 105,33.5C 102.944,34.5832 101.611,36.2499 101,38.5C 98.0971,39.0686 96.0971,40.7352 95,43.5C 94.6667,43.1667 94.3333,42.8333 94,42.5C 93.7805,44.9732 92.6138,46.6398 90.5,47.5C 90.179,46.1825 89.8457,44.8492 89.5,43.5C 90.7065,41.5514 92.3732,40.0514 94.5,39C 92.7445,38.8595 91.0778,39.3595 89.5,40.5C 89.3459,39.0909 89.1792,37.4242 89,35.5C 88.6174,36.056 88.1174,36.3893 87.5,36.5C 87.9195,34.9064 88.5862,33.4064 89.5,32C 89.4301,31.2352 89.0967,30.7352 88.5,30.5C 87.1634,29.6851 86.1634,28.5185 85.5,27C 84.552,26.5172 83.552,26.3505 82.5,26.5C 83.165,23.1116 82.165,22.1116 79.5,23.5C 75.2125,21.8854 71.0459,20.8854 67,20.5C 66.5172,21.448 66.3505,22.448 66.5,23.5C 65.0892,20.5901 65.9225,18.2567 69,16.5C 72.1687,16.5271 75.3354,17.3605 78.5,19C 78.727,20.1353 79.0604,21.302 79.5,22.5C 80.3211,19.5535 80.3211,16.5535 79.5,13.5C 81.46,12.8617 83.2933,12.8617 85,13.5C 88.1954,20.7529 91.1954,28.0862 94,35.5C 95.4265,28.5134 96.7598,21.5134 98,14.5C 100.106,12.709 102.606,12.0423 105.5,12.5C 103.857,17.3964 103.023,22.3964 103,27.5C 105.333,23.8333 108.333,20.8333 112,18.5C 112.483,17.552 112.649,16.552 112.5,15.5C 114.124,15.3601 115.29,16.0267 116,17.5C 116.908,15.5614 118.408,14.5614 120.5,14.5C 120.5,15.8333 120.5,17.1667 120.5,18.5C 125.541,18.3527 127.207,20.5194 125.5,25C 122.294,24.1986 118.961,23.8653 115.5,24C 113.34,25.332 111.34,26.832 109.5,28.5 Z"/></g>
<g><path style="opacity:1" fill="#201c22" d="M 88.5,30.5 C 89.0967,30.7352 89.4301,31.2352 89.5,32C 88.5862,33.4064 87.9195,34.9064 87.5,36.5C 86.753,39.1497 85.753,41.8164 84.5,44.5C 83.3391,39.1466 84.6724,34.4799 88.5,30.5 Z"/></g>
<g><path style="opacity:1" fill="#3a2444" d="M 88.5,30.5 C 84.6724,34.4799 83.3391,39.1466 84.5,44.5C 85.753,41.8164 86.753,39.1497 87.5,36.5C 88.1174,36.3893 88.6174,36.056 89,35.5C 89.1792,37.4242 89.3459,39.0909 89.5,40.5C 91.0778,39.3595 92.7445,38.8595 94.5,39C 92.3732,40.0514 90.7065,41.5514 89.5,43.5C 89.8457,44.8492 90.179,46.1825 90.5,47.5C 89.2825,48.1614 87.9492,48.8281 86.5,49.5C 87.8333,50.5 87.8333,51.5 86.5,52.5C 89.2719,56.0432 90.9385,60.0432 91.5,64.5C 92.5,64.5 93.5,64.5 94.5,64.5C 95.0522,62.6693 95.0522,61.0026 94.5,59.5C 95.1667,58.8333 95.8333,58.1667 96.5,57.5C 95.0561,51.6667 96.7227,46.8334 101.5,43C 104.753,42.3887 107.753,41.2221 110.5,39.5C 112.434,39.9005 113.934,40.9005 115,42.5C 115.667,39.8333 116.333,39.8333 117,42.5C 117.409,40.3049 116.909,38.3049 115.5,36.5C 119.073,37.7762 122.073,39.7762 124.5,42.5C 127.145,41.8924 129.812,41.3924 132.5,41C 134.128,37.8501 136.462,37.0168 139.5,38.5C 138.391,40.2141 139.058,40.8808 141.5,40.5C 141.277,42.3417 140.943,44.175 140.5,46C 140.833,46.8333 141.167,47.6667 141.5,48.5C 144.602,47.1066 145.602,47.94 144.5,51C 147.145,52.2865 148.145,54.4532 147.5,57.5C 146.325,57.281 145.325,57.6143 144.5,58.5C 145.246,59.7362 145.579,61.0695 145.5,62.5C 142.193,62.9368 139.193,62.2702 136.5,60.5C 135.993,65.6439 134.993,70.6439 133.5,75.5C 134.842,78.7637 134.508,81.7637 132.5,84.5C 132.565,84.0618 132.399,83.7284 132,83.5C 131.692,84.3081 131.192,84.9747 130.5,85.5C 128.899,86.1654 127.399,86.4988 126,86.5C 125.052,84.4299 123.552,82.9299 121.5,82C 121.833,81.6667 122.167,81.3333 122.5,81C 121.258,80.6886 120.258,81.1886 119.5,82.5C 113.725,76.0102 115.058,71.3435 123.5,68.5C 120.919,72.5358 120.919,76.5358 123.5,80.5C 126.864,81.3265 129.53,80.1598 131.5,77C 130.475,74.9285 129.642,72.7619 129,70.5C 127.512,68.84 125.679,67.84 123.5,67.5C 122.5,67.5 121.5,67.5 120.5,67.5C 117.861,69.309 115.694,71.6424 114,74.5C 111.469,69.4481 110.302,70.1148 110.5,76.5C 108.786,72.3862 109.62,68.7195 113,65.5C 112.979,58.174 116.479,53.674 123.5,52C 127.863,51.1065 132.196,50.1065 136.5,49C 137.38,47.6439 137.714,46.1439 137.5,44.5C 130.055,44.2989 123.055,45.7989 116.5,49C 112.514,49.4988 108.514,49.6655 104.5,49.5C 104.843,55.6523 104.843,61.4856 104.5,67C 105.5,67.3333 106.5,67.6667 107.5,68C 103.166,68.7722 100.166,71.2722 98.5,75.5C 100.977,79.5216 102.311,79.5216 102.5,75.5C 103.597,81.2146 102.097,81.8813 98,77.5C 97.0266,79.3921 96.3599,81.3921 96,83.5C 95.8184,80.7737 95.3184,78.1071 94.5,75.5C 93.2613,75.0576 92.2613,74.3909 91.5,73.5C 93.4607,71.2018 94.4607,68.5351 94.5,65.5C 92.323,65.5861 90.323,66.2528 88.5,67.5C 87.8076,66.9747 87.3076,66.3081 87,65.5C 86.6667,65.8333 86.3333,66.1667 86,66.5C 85.0766,65.2412 84.2432,63.9079 83.5,62.5C 83.6637,65.2492 82.8304,67.9159 81,70.5C 79.1114,71.0974 77.2781,71.4307 75.5,71.5C 76.0253,72.1924 76.6919,72.6924 77.5,73C 75.4071,74.927 73.4071,74.7603 71.5,72.5C 71.1667,73.8333 70.8333,75.1667 70.5,76.5C 69.0815,75.9953 68.4148,74.9953 68.5,73.5C 69.7137,70.6475 70.0471,67.8141 69.5,65C 72.893,63.2728 75.2264,60.6062 76.5,57C 78.3867,57.4229 80.3867,57.2563 82.5,56.5C 82.6815,53.447 82.8481,50.447 83,47.5C 82.3333,48.8333 81.6667,50.1667 81,51.5C 77.8012,50.7636 77.6345,51.5969 80.5,54C 79.451,54.4922 78.451,54.3256 77.5,53.5C 76.8076,54.0253 76.3076,54.6919 76,55.5C 74.992,53.741 73.492,52.5743 71.5,52C 73.854,49.31 73.1873,48.81 69.5,50.5C 71.2362,41.9255 75.9028,35.4255 83.5,31C 78.9783,25.2367 73.3117,22.7367 66.5,23.5C 66.3505,22.448 66.5172,21.448 67,20.5C 71.0459,20.8854 75.2125,21.8854 79.5,23.5C 82.165,22.1116 83.165,23.1116 82.5,26.5C 83.552,26.3505 84.552,26.5172 85.5,27C 86.1634,28.5185 87.1634,29.6851 88.5,30.5 Z"/></g>
<g><path style="opacity:1" fill="#4c2a5c" d="M 109.5,28.5 C 109.579,29.9305 109.246,31.2638 108.5,32.5C 111.021,33.6882 113.355,35.0216 115.5,36.5C 116.909,38.3049 117.409,40.3049 117,42.5C 116.333,39.8333 115.667,39.8333 115,42.5C 113.934,40.9005 112.434,39.9005 110.5,39.5C 107.753,41.2221 104.753,42.3887 101.5,43C 96.7227,46.8334 95.0561,51.6667 96.5,57.5C 95.8333,58.1667 95.1667,58.8333 94.5,59.5C 95.0522,61.0026 95.0522,62.6693 94.5,64.5C 93.5,64.5 92.5,64.5 91.5,64.5C 90.9385,60.0432 89.2719,56.0432 86.5,52.5C 87.8333,51.5 87.8333,50.5 86.5,49.5C 87.9492,48.8281 89.2825,48.1614 90.5,47.5C 92.6138,46.6398 93.7805,44.9732 94,42.5C 94.3333,42.8333 94.6667,43.1667 95,43.5C 96.0971,40.7352 98.0971,39.0686 101,38.5C 101.611,36.2499 102.944,34.5832 105,33.5C 106.232,28.5948 108.732,24.4281 112.5,21C 113.5,20.3333 114.5,20.3333 115.5,21C 112.913,23.0809 110.913,25.5809 109.5,28.5 Z"/></g>
<g><path style="opacity:1" fill="#562e6a" d="M 120.5,67.5 C 118.234,67.1412 116.401,67.8078 115,69.5C 115.157,65.6816 116.157,62.0149 118,58.5C 121.238,56.243 124.738,55.9096 128.5,57.5C 129.696,58.5594 130.363,59.8927 130.5,61.5C 130.096,63.7003 129.93,66.0336 130,68.5C 126.996,64.0744 123.829,63.7411 120.5,67.5 Z"/></g>
<g><path style="opacity:1" fill="#312138" d="M 68.5,73.5 C 66.4178,74.5849 66.0844,76.0849 67.5,78C 66.3284,78.3534 65.1618,78.1868 64,77.5C 62.9231,78.4295 61.7564,79.0962 60.5,79.5C 56.8332,67.8807 59.8332,58.214 69.5,50.5C 73.1873,48.81 73.854,49.31 71.5,52C 73.492,52.5743 74.992,53.741 76,55.5C 76.3076,54.6919 76.8076,54.0253 77.5,53.5C 78.451,54.3256 79.451,54.4922 80.5,54C 77.6345,51.5969 77.8012,50.7636 81,51.5C 81.6667,50.1667 82.3333,48.8333 83,47.5C 82.8481,50.447 82.6815,53.447 82.5,56.5C 80.3867,57.2563 78.3867,57.4229 76.5,57C 75.2264,60.6062 72.893,63.2728 69.5,65C 70.0471,67.8141 69.7137,70.6475 68.5,73.5 Z"/></g>
<g><path style="opacity:1" fill="#562e69" d="M 123.5,67.5 C 125.679,67.84 127.512,68.84 129,70.5C 129.642,72.7619 130.475,74.9285 131.5,77C 129.53,80.1598 126.864,81.3265 123.5,80.5C 120.919,76.5358 120.919,72.5358 123.5,68.5C 123.5,68.1667 123.5,67.8333 123.5,67.5 Z"/></g>
<g><path style="opacity:1" fill="#552e69" d="M 110.5,76.5 C 113.152,82.3047 112.652,87.9714 109,93.5C 104.177,96.7508 100.01,96.0841 96.5,91.5C 96.1667,91.6667 95.8333,91.8333 95.5,92C 96.5,93 97.5,94 98.5,95C 96.5,95.8333 94.5,96.6667 92.5,97.5C 92.6667,97.8333 92.8333,98.1667 93,98.5C 95.694,97.117 98.5274,96.617 101.5,97C 100.271,98.5292 98.7713,99.6959 97,100.5C 96.3333,101.5 96.3333,102.5 97,103.5C 99.5659,99.7677 103.066,97.4344 107.5,96.5C 107.162,98.854 106.662,101.187 106,103.5C 103.03,107.596 100.53,111.929 98.5,116.5C 97.8826,116.611 97.3826,116.944 97,117.5C 93.1248,113.683 89.1248,110.016 85,106.5C 84.0797,103.899 83.413,101.232 83,98.5C 82.3763,96.246 81.043,94.5794 79,93.5C 78.5014,89.8484 78.3347,86.1817 78.5,82.5C 79.5294,80.136 79.5294,77.8026 78.5,75.5C 82.1692,69.8967 86.5025,69.23 91.5,73.5C 92.2613,74.3909 93.2613,75.0576 94.5,75.5C 95.3184,78.1071 95.8184,80.7737 96,83.5C 96.3599,81.3921 97.0266,79.3921 98,77.5C 102.097,81.8813 103.597,81.2146 102.5,75.5C 102.311,79.5216 100.977,79.5216 98.5,75.5C 100.166,71.2722 103.166,68.7722 107.5,68C 106.5,67.6667 105.5,67.3333 104.5,67C 104.843,61.4856 104.843,55.6523 104.5,49.5C 108.514,49.6655 112.514,49.4988 116.5,49C 123.055,45.7989 130.055,44.2989 137.5,44.5C 137.714,46.1439 137.38,47.6439 136.5,49C 132.196,50.1065 127.863,51.1065 123.5,52C 116.479,53.674 112.979,58.174 113,65.5C 109.62,68.7195 108.786,72.3862 110.5,76.5 Z"/></g>
<g><path style="opacity:1" fill="#231c26" d="M 91.5,73.5 C 86.5025,69.23 82.1692,69.8967 78.5,75.5C 79.5294,77.8026 79.5294,80.136 78.5,82.5C 77.0245,81.738 75.6912,81.4047 74.5,81.5C 77.6947,80.1233 78.1947,78.1233 76,75.5C 74.2807,78.2195 71.9474,80.2195 69,81.5C 68.4503,84.2634 67.6169,86.9301 66.5,89.5C 67.1633,92.8058 67.6633,96.1392 68,99.5C 68.3333,99.1667 68.6667,98.8333 69,98.5C 70.7398,99.7158 71.7398,101.382 72,103.5C 72.4169,102.244 73.2502,101.577 74.5,101.5C 76.9263,102.353 77.7596,104.019 77,106.5C 74.9195,103.716 74.2528,104.049 75,107.5C 78.3063,108.14 80.3063,110.14 81,113.5C 81.414,113.043 81.914,112.709 82.5,112.5C 83.1151,115.436 84.2817,118.103 86,120.5C 86.6667,121.833 87.3333,121.833 88,120.5C 88.7796,122.387 88.6129,124.054 87.5,125.5C 79.458,116.957 71.958,107.957 65,98.5C 63.0646,92.1888 61.5646,85.8555 60.5,79.5C 61.7564,79.0962 62.9231,78.4295 64,77.5C 65.1618,78.1868 66.3284,78.3534 67.5,78C 66.0844,76.0849 66.4178,74.5849 68.5,73.5C 68.4148,74.9953 69.0815,75.9953 70.5,76.5C 70.8333,75.1667 71.1667,73.8333 71.5,72.5C 73.4071,74.7603 75.4071,74.927 77.5,73C 76.6919,72.6924 76.0253,72.1924 75.5,71.5C 77.2781,71.4307 79.1114,71.0974 81,70.5C 82.8304,67.9159 83.6637,65.2492 83.5,62.5C 84.2432,63.9079 85.0766,65.2412 86,66.5C 86.3333,66.1667 86.6667,65.8333 87,65.5C 87.3076,66.3081 87.8076,66.9747 88.5,67.5C 90.323,66.2528 92.323,65.5861 94.5,65.5C 94.4607,68.5351 93.4607,71.2018 91.5,73.5 Z"/></g>
<g><path style="opacity:1" fill="#372341" d="M 78.5,82.5 C 78.3347,86.1817 78.5014,89.8484 79,93.5C 81.043,94.5794 82.3763,96.246 83,98.5C 83.413,101.232 84.0797,103.899 85,106.5C 89.1248,110.016 93.1248,113.683 97,117.5C 97.3826,116.944 97.8826,116.611 98.5,116.5C 98.3398,118.199 98.5065,119.866 99,121.5C 99.3826,120.944 99.8826,120.611 100.5,120.5C 100.5,121.5 100.5,122.5 100.5,123.5C 98.9069,124.348 97.7403,125.681 97,127.5C 96.9565,124.525 97.1231,121.525 97.5,118.5C 94.5314,119.329 91.5314,119.495 88.5,119C 87.6948,117.028 86.3615,115.528 84.5,114.5C 85.1667,114.167 85.8333,113.833 86.5,113.5C 84.1499,110.965 82.6499,107.965 82,104.5C 81.6667,104.833 81.3333,105.167 81,105.5C 80,102.5 78,100.5 75,99.5C 74.5357,100.094 74.369,100.761 74.5,101.5C 73.2502,101.577 72.4169,102.244 72,103.5C 71.7398,101.382 70.7398,99.7158 69,98.5C 68.6667,98.8333 68.3333,99.1667 68,99.5C 67.6633,96.1392 67.1633,92.8058 66.5,89.5C 67.6169,86.9301 68.4503,84.2634 69,81.5C 71.9474,80.2195 74.2807,78.2195 76,75.5C 78.1947,78.1233 77.6947,80.1233 74.5,81.5C 75.6912,81.4047 77.0245,81.738 78.5,82.5 Z"/></g>
<g><path style="opacity:1" fill="#542d67" d="M 119.5,87.5 C 121.965,88.8284 123.799,90.8284 125,93.5C 126.309,91.1088 127.309,91.1088 128,93.5C 127.788,99.3514 126.455,105.018 124,110.5C 122.601,111.227 121.101,111.727 119.5,112C 116.869,119.131 111.869,123.631 104.5,125.5C 103.378,124.37 102.044,123.703 100.5,123.5C 100.5,122.5 100.5,121.5 100.5,120.5C 102.197,115.442 104.697,110.775 108,106.5C 109.127,109.377 109.794,112.377 110,115.5C 111.368,111.882 111.202,108.216 109.5,104.5C 110.3,100.252 112.133,96.5852 115,93.5C 118.083,96.9991 120.083,100.999 121,105.5C 121.725,102.623 121.225,99.9567 119.5,97.5C 120.025,96.8076 120.692,96.3076 121.5,96C 116.853,94.2314 115.186,91.0647 116.5,86.5C 117.417,87.1272 118.417,87.4606 119.5,87.5 Z"/></g>
<g><path style="opacity:1" fill="#2f2136" d="M 120.5,67.5 C 121.5,67.5 122.5,67.5 123.5,67.5C 123.5,67.8333 123.5,68.1667 123.5,68.5C 115.058,71.3435 113.725,76.0102 119.5,82.5C 120.258,81.1886 121.258,80.6886 122.5,81C 122.167,81.3333 121.833,81.6667 121.5,82C 123.552,82.9299 125.052,84.4299 126,86.5C 127.399,86.4988 128.899,86.1654 130.5,85.5C 131.192,84.9747 131.692,84.3081 132,83.5C 132.399,83.7284 132.565,84.0618 132.5,84.5C 132.5,85.5 132.5,86.5 132.5,87.5C 128.167,87.5 123.833,87.5 119.5,87.5C 118.417,87.4606 117.417,87.1272 116.5,86.5C 115.186,91.0647 116.853,94.2314 121.5,96C 120.692,96.3076 120.025,96.8076 119.5,97.5C 121.225,99.9567 121.725,102.623 121,105.5C 120.083,100.999 118.083,96.9991 115,93.5C 112.133,96.5852 110.3,100.252 109.5,104.5C 111.202,108.216 111.368,111.882 110,115.5C 109.794,112.377 109.127,109.377 108,106.5C 104.697,110.775 102.197,115.442 100.5,120.5C 99.8826,120.611 99.3826,120.944 99,121.5C 98.5065,119.866 98.3398,118.199 98.5,116.5C 100.53,111.929 103.03,107.596 106,103.5C 106.662,101.187 107.162,98.854 107.5,96.5C 103.066,97.4344 99.5659,99.7677 97,103.5C 96.3333,102.5 96.3333,101.5 97,100.5C 98.7713,99.6959 100.271,98.5292 101.5,97C 98.5274,96.617 95.694,97.117 93,98.5C 92.8333,98.1667 92.6667,97.8333 92.5,97.5C 94.5,96.6667 96.5,95.8333 98.5,95C 97.5,94 96.5,93 95.5,92C 95.8333,91.8333 96.1667,91.6667 96.5,91.5C 100.01,96.0841 104.177,96.7508 109,93.5C 112.652,87.9714 113.152,82.3047 110.5,76.5C 110.302,70.1148 111.469,69.4481 114,74.5C 115.694,71.6424 117.861,69.309 120.5,67.5 Z"/></g>
<g><path style="opacity:1" fill="#291e2e" d="M 100.5,123.5 C 101.461,125.438 100.795,126.938 98.5,128C 99.6667,129.167 100.833,130.333 102,131.5C 108.435,130.978 114.102,128.644 119,124.5C 119.679,121.45 120.512,118.45 121.5,115.5C 125.341,112.673 128.341,109.34 130.5,105.5C 128.239,112.695 125.406,119.695 122,126.5C 114.542,137.776 105.042,139.609 93.5,132C 91.2941,129.963 89.2941,127.797 87.5,125.5C 88.6129,124.054 88.7796,122.387 88,120.5C 87.3333,121.833 86.6667,121.833 86,120.5C 84.2817,118.103 83.1151,115.436 82.5,112.5C 81.914,112.709 81.414,113.043 81,113.5C 80.3063,110.14 78.3063,108.14 75,107.5C 74.2528,104.049 74.9195,103.716 77,106.5C 77.7596,104.019 76.9263,102.353 74.5,101.5C 74.369,100.761 74.5357,100.094 75,99.5C 78,100.5 80,102.5 81,105.5C 81.3333,105.167 81.6667,104.833 82,104.5C 82.6499,107.965 84.1499,110.965 86.5,113.5C 85.8333,113.833 85.1667,114.167 84.5,114.5C 86.3615,115.528 87.6948,117.028 88.5,119C 91.5314,119.495 94.5314,119.329 97.5,118.5C 97.1231,121.525 96.9565,124.525 97,127.5C 97.7403,125.681 98.9069,124.348 100.5,123.5 Z"/></g>
<g><path style="opacity:1" fill="#392443" d="M 119.5,87.5 C 123.833,87.5 128.167,87.5 132.5,87.5C 133.997,89.2897 134.664,91.4563 134.5,94C 134.363,96.898 133.863,99.7314 133,102.5C 132.623,103.942 131.79,104.942 130.5,105.5C 128.341,109.34 125.341,112.673 121.5,115.5C 120.512,118.45 119.679,121.45 119,124.5C 114.102,128.644 108.435,130.978 102,131.5C 100.833,130.333 99.6667,129.167 98.5,128C 100.795,126.938 101.461,125.438 100.5,123.5C 102.044,123.703 103.378,124.37 104.5,125.5C 111.869,123.631 116.869,119.131 119.5,112C 121.101,111.727 122.601,111.227 124,110.5C 126.455,105.018 127.788,99.3514 128,93.5C 127.309,91.1088 126.309,91.1088 125,93.5C 123.799,90.8284 121.965,88.8284 119.5,87.5 Z"/></g>
<g><path style="opacity:1" fill="#fefffe" d="M 37.5,155.5 C 40.8499,155.335 44.1832,155.502 47.5,156C 51.6959,158.981 52.5293,162.814 50,167.5C 47.4355,169.179 44.6021,169.846 41.5,169.5C 41.5,171.5 41.5,173.5 41.5,175.5C 40.1667,175.5 38.8333,175.5 37.5,175.5C 37.5,168.833 37.5,162.167 37.5,155.5 Z"/></g>
<g><path style="opacity:1" fill="#fefffe" d="M 58.5,155.5 C 60.1667,155.5 61.8333,155.5 63.5,155.5C 65.1667,162.167 66.8333,168.833 68.5,175.5C 65.5,175.833 64.1667,174.5 64.5,171.5C 62.1667,171.5 59.8333,171.5 57.5,171.5C 57.8333,174.5 56.5,175.833 53.5,175.5C 55.1667,168.833 56.8333,162.167 58.5,155.5 Z"/></g>
<g><path style="opacity:1" fill="#fefffe" d="M 71.5,155.5 C 83.1624,153.997 87.6624,158.997 85,170.5C 84.5348,171.931 83.7014,173.097 82.5,174C 78.9743,175.337 75.3076,175.837 71.5,175.5C 71.5,168.833 71.5,162.167 71.5,155.5 Z"/></g>
<g><path style="opacity:1" fill="#fefffe" d="M 92.5,155.5 C 96.8884,154.943 100.055,156.61 102,160.5C 103.472,166.076 102.305,170.909 98.5,175C 93.5724,176.643 90.0724,175.143 88,170.5C 87.3333,167.167 87.3333,163.833 88,160.5C 89.025,158.313 90.525,156.646 92.5,155.5 Z"/></g>
<g><path style="opacity:1" fill="#fefffe" d="M 105.5,155.5 C 107.167,155.5 108.833,155.5 110.5,155.5C 111.5,167.5 112.5,167.5 113.5,155.5C 115.167,155.5 116.833,155.5 118.5,155.5C 118.5,162.167 118.5,168.833 118.5,175.5C 117.5,175.5 116.5,175.5 115.5,175.5C 115.666,170.489 115.499,165.489 115,160.5C 114.433,163.168 113.933,165.834 113.5,168.5C 112.5,168.5 111.5,168.5 110.5,168.5C 110.067,165.834 109.567,163.168 109,160.5C 108.501,165.489 108.334,170.489 108.5,175.5C 107.5,175.5 106.5,175.5 105.5,175.5C 105.5,168.833 105.5,162.167 105.5,155.5 Z"/></g>
<g><path style="opacity:1" fill="#fefffe" d="M 126.5,155.5 C 128.167,155.5 129.833,155.5 131.5,155.5C 133.167,162.167 134.833,168.833 136.5,175.5C 133.5,175.833 132.167,174.5 132.5,171.5C 130.167,171.5 127.833,171.5 125.5,171.5C 125.833,174.5 124.5,175.833 121.5,175.5C 123.167,168.833 124.833,162.167 126.5,155.5 Z"/></g>
<g><path style="opacity:1" fill="#fefffe" d="M 139.5,155.5 C 143.833,155.5 148.167,155.5 152.5,155.5C 152.5,156.5 152.5,157.5 152.5,158.5C 150.833,158.5 149.167,158.5 147.5,158.5C 147.5,163.167 147.5,167.833 147.5,172.5C 149.167,172.5 150.833,172.5 152.5,172.5C 152.5,173.5 152.5,174.5 152.5,175.5C 148.167,175.5 143.833,175.5 139.5,175.5C 139.5,174.5 139.5,173.5 139.5,172.5C 141.167,172.5 142.833,172.5 144.5,172.5C 144.5,167.833 144.5,163.167 144.5,158.5C 142.833,158.5 141.167,158.5 139.5,158.5C 139.5,157.5 139.5,156.5 139.5,155.5 Z"/></g>
<g><path style="opacity:1" fill="#fefffe" d="M 161.5,155.5 C 164.893,155.062 167.893,155.895 170.5,158C 169.892,158.87 169.059,159.37 168,159.5C 162.314,157.428 159.481,159.428 159.5,165.5C 159.963,171.798 163.13,173.798 169,171.5C 170.852,173.23 170.686,174.396 168.5,175C 158.168,176.332 154.001,171.832 156,161.5C 157.36,158.977 159.193,156.977 161.5,155.5 Z"/></g>
<g><path style="opacity:1" fill="#212221" d="M 41.5,158.5 C 47.3133,158.062 48.98,160.562 46.5,166C 44.8659,166.494 43.1992,166.66 41.5,166.5C 41.5,163.833 41.5,161.167 41.5,158.5 Z"/></g>
<g><path style="opacity:1" fill="#212221" d="M 74.5,158.5 C 79.6105,158.054 82.2771,160.387 82.5,165.5C 82.2792,170.725 79.6126,173.058 74.5,172.5C 74.5,167.833 74.5,163.167 74.5,158.5 Z"/></g>
<g><path style="opacity:1" fill="#212221" d="M 93.5,158.5 C 95.3904,158.297 96.8904,158.963 98,160.5C 98.6667,163.833 98.6667,167.167 98,170.5C 96,173.167 94,173.167 92,170.5C 90.994,166.198 91.494,162.198 93.5,158.5 Z"/></g>
<g><path style="opacity:1" fill="#212221" d="M 60.5,159.5 C 61.7908,161.949 62.7908,164.616 63.5,167.5C 61.8333,168.833 60.1667,168.833 58.5,167.5C 59.4822,164.904 60.1489,162.238 60.5,159.5 Z"/></g>
<g><path style="opacity:1" fill="#212221" d="M 128.5,159.5 C 129.791,161.949 130.791,164.616 131.5,167.5C 129.833,168.833 128.167,168.833 126.5,167.5C 127.482,164.904 128.149,162.238 128.5,159.5 Z"/></g>
</svg>
