<?xml version="1.0" encoding="UTF-8"?>
<!DOCTYPE svg PUBLIC "-//W3C//DTD SVG 1.1//EN" "http://www.w3.org/Graphics/SVG/1.1/DTD/svg11.dtd">
<svg xmlns="http://www.w3.org/2000/svg" version="1.1" width="200px" height="200px" style="shape-rendering:geometricPrecision; text-rendering:geometricPrecision; image-rendering:optimizeQuality; fill-rule:evenodd; clip-rule:evenodd" xmlns:xlink="http://www.w3.org/1999/xlink">
<g><path style="opacity:0.998" fill="#212121" d="M 8.5,-0.5 C 69.1667,-0.5 129.833,-0.5 190.5,-0.5C 194.58,1.91067 197.58,5.244 199.5,9.5C 199.5,69.8333 199.5,130.167 199.5,190.5C 196.789,194.212 193.456,197.212 189.5,199.5C 129.5,199.5 69.5,199.5 9.5,199.5C 5.54423,197.212 2.21089,194.212 -0.5,190.5C -0.5,130.167 -0.5,69.8333 -0.5,9.5C 1.42004,5.244 4.42004,1.91067 8.5,-0.5 Z"/></g>
<g><path style="opacity:1" fill="#00497e" d="M 15.5,9.5 C 72.2502,9.00822 128.917,9.50822 185.5,11C 187.049,12.214 188.215,13.714 189,15.5C 189.5,56.832 189.667,98.1653 189.5,139.5C 129.5,139.5 69.5,139.5 9.5,139.5C 9.33334,98.1653 9.50001,56.832 10,15.5C 11.3597,12.9774 13.193,10.9774 15.5,9.5 Z"/></g>
<g><path style="opacity:1" fill="#222223" d="M 86.5,11.5 C 87.675,11.281 88.675,11.6143 89.5,12.5C 89.2051,16.2873 86.8718,18.454 82.5,19C 81.0403,19.8113 80.707,20.6446 81.5,21.5C 84.7399,21.3955 87.7399,20.0622 90.5,17.5C 91.086,17.7093 91.586,18.0426 92,18.5C 93.0195,17.3128 94.1861,16.3128 95.5,15.5C 98.1667,16.8333 100.833,16.8333 103.5,15.5C 104.611,16.6113 105.945,17.278 107.5,17.5C 109.105,16.5697 110.605,16.5697 112,17.5C 112.804,16.1955 113.971,15.5288 115.5,15.5C 117.16,16.7866 118.826,18.1199 120.5,19.5C 122.124,20.8689 122.624,22.5355 122,24.5C 120.817,23.269 119.651,23.269 118.5,24.5C 120.833,31.8333 123.167,39.1667 125.5,46.5C 122.726,47.3759 120.059,47.3759 117.5,46.5C 119.397,49.7892 122.063,50.7892 125.5,49.5C 126.386,50.325 126.719,51.325 126.5,52.5C 114.162,52.6665 101.829,52.4999 89.5,52C 83.6667,47.5 77.8333,43 72,38.5C 72.0573,30.8136 72.724,23.1469 74,15.5C 78.4747,13.9481 82.6414,12.6148 86.5,11.5 Z"/></g>
<g><path style="opacity:1" fill="#232121" d="M 132.5,12.5 C 134.924,12.1924 137.257,12.5258 139.5,13.5C 139.97,17.1878 138.304,19.8544 134.5,21.5C 134.762,19.8678 133.762,18.7012 131.5,18C 131.565,16.1712 131.898,14.3379 132.5,12.5 Z"/></g>
<g><path style="opacity:1" fill="#222121" d="M 63.5,16.5 C 66.3054,16.818 68.6387,17.9847 70.5,20C 69.9658,26.254 68.9658,32.4207 67.5,38.5C 58.9935,40.1334 50.6601,41.9667 42.5,44C 42.3014,40.6775 40.6347,38.5109 37.5,37.5C 32.6326,42.6784 27.6326,47.845 22.5,53C 23.5491,57.005 21.8825,58.8384 17.5,58.5C 17.579,50.0731 20.4123,42.7398 26,36.5C 26.3333,35.1667 26.6667,33.8333 27,32.5C 29.687,28.8167 32.687,25.4834 36,22.5C 36.9147,23.3279 37.5814,24.3279 38,25.5C 40.0774,21.4378 43.4107,18.7711 48,17.5C 48.0533,20.202 47.5533,22.8686 46.5,25.5C 46.8218,28.325 47.9885,30.6584 50,32.5C 54.8137,29.3787 58.9804,25.712 62.5,21.5C 63.0258,19.7348 63.3592,18.0681 63.5,16.5 Z"/></g>
<g><path style="opacity:1" fill="#222121" d="M 127.5,23.5 C 132.315,23.9282 133.315,25.9282 130.5,29.5C 132.086,32.3405 133.92,35.0072 136,37.5C 135.721,42.7036 137.054,47.7036 140,52.5C 144.326,55.8264 148.326,59.4931 152,63.5C 153.141,60.5278 155.308,58.8611 158.5,58.5C 161.372,63.2963 164.372,63.463 167.5,59C 166.663,57.9887 166.33,56.8221 166.5,55.5C 168.124,55.6399 169.29,54.9733 170,53.5C 171.086,49.3795 171.586,45.2129 171.5,41C 169.419,36.4055 167.086,31.9055 164.5,27.5C 168.532,27.1109 172.366,28.1109 176,30.5C 175.508,34.6682 176.674,38.5015 179.5,42C 179.907,45.6293 179.407,49.1293 178,52.5C 178.333,52.8333 178.667,53.1667 179,53.5C 180.093,51.6508 181.426,49.9842 183,48.5C 186.299,51.6308 185.633,53.9641 181,55.5C 179.228,60.4531 177.562,65.4531 176,70.5C 173.622,72.863 171.122,74.1963 168.5,74.5C 170.566,75.9063 172.732,77.2396 175,78.5C 174.57,80.127 174.404,81.627 174.5,83C 176.919,84.5088 177.919,86.6755 177.5,89.5C 176.07,89.4208 174.736,89.7542 173.5,90.5C 165.16,86.9812 156.326,83.6479 147,80.5C 141.417,72.3363 136.084,64.0029 131,55.5C 127.851,45.5702 125.018,35.5702 122.5,25.5C 124.698,25.8799 126.365,25.2132 127.5,23.5 Z"/></g>
<g><path style="opacity:1" fill="#222121" d="M 144.5,24.5 C 148.935,26.2753 153.601,27.442 158.5,28C 159.585,30.172 160.919,32.172 162.5,34C 157.735,36.0401 157.402,38.8735 161.5,42.5C 162.908,43.2432 164.241,44.0766 165.5,45C 165.167,45.3333 164.833,45.6667 164.5,46C 166.211,47.1332 166.711,48.6332 166,50.5C 162.938,48.8695 161.271,49.8695 161,53.5C 160.517,52.552 160.351,51.552 160.5,50.5C 158.5,50.5 156.5,50.5 154.5,50.5C 154.649,49.448 154.483,48.448 154,47.5C 153.667,47.8333 153.333,48.1667 153,48.5C 151.333,47.8333 149.667,47.1667 148,46.5C 148,48.5 148,50.5 148,52.5C 142.16,49.9932 140.16,45.6599 142,39.5C 141.097,38.2986 139.931,37.4652 138.5,37C 139.458,35.8525 139.125,34.8525 137.5,34C 138.328,33.0853 139.328,32.4186 140.5,32C 139.167,31.3333 139.167,30.6667 140.5,30C 139.672,29.0853 138.672,28.4186 137.5,28C 139.582,26.1689 141.915,25.0022 144.5,24.5 Z"/></g>
<g><path style="opacity:1" fill="#00497f" d="M 75.5,28.5 C 77.4235,30.1497 78.4235,31.9831 78.5,34C 73.5407,34.232 72.5407,32.3987 75.5,28.5 Z"/></g>
<g><path style="opacity:1" fill="#00497f" d="M 90.5,39.5 C 93.0573,40.1878 95.3907,41.3545 97.5,43C 94.3511,44.0346 91.6844,43.3679 89.5,41C 90.056,40.6174 90.3893,40.1174 90.5,39.5 Z"/></g>
<g><path style="opacity:1" fill="#222221" d="M 69.5,40.5 C 75.9569,45.1175 82.2903,49.9508 88.5,55C 80.6667,62.8333 72.8333,70.6667 65,78.5C 63.2503,75.7536 62.2503,72.7536 62,69.5C 60.0679,67.9617 57.9012,66.795 55.5,66C 56.8333,65.3333 56.8333,64.6667 55.5,64C 53.8333,63.3333 52.1667,63.3333 50.5,64C 48.2178,66.1668 46.7178,68.3335 46,70.5C 44.2774,68.9205 42.4441,67.4205 40.5,66C 39.1667,65.3333 37.8333,65.3333 36.5,66C 35.2774,68.944 33.4441,71.444 31,73.5C 29.292,71.4565 27.292,69.7899 25,68.5C 24.7573,58.2918 29.924,52.1251 40.5,50C 41.9842,48.4263 43.6508,47.093 45.5,46C 53.7576,44.6875 61.7576,42.8542 69.5,40.5 Z"/></g>
<g><path style="opacity:1" fill="#00497f" d="M 111.5,41.5 C 112.5,41.5 113.5,41.5 114.5,41.5C 114.5,42.5 114.5,43.5 114.5,44.5C 111.433,44.8795 110.433,43.8795 111.5,41.5 Z"/></g>
<g><path style="opacity:1" fill="#00497f" d="M 145.5,42.5 C 146.325,44.1252 145.992,45.7918 144.5,47.5C 143.348,45.6029 143.681,43.9362 145.5,42.5 Z"/></g>
<g><path style="opacity:1" fill="#222222" d="M 91.5,55.5 C 103.994,55.0214 116.327,55.5214 128.5,57C 127.044,57.4226 126.544,58.2559 127,59.5C 128,58.1667 129,58.1667 130,59.5C 135.364,67.3655 140.53,75.3655 145.5,83.5C 140.628,94.0761 135.628,104.576 130.5,115C 127.938,116.273 125.604,115.606 123.5,113C 124.167,112 124.833,111 125.5,110C 122.224,103.601 123.224,97.9339 128.5,93C 128.097,91.5272 127.43,90.1939 126.5,89C 127,88.5 127.5,88 128,87.5C 129.183,88.731 130.349,88.731 131.5,87.5C 128.97,86.8681 126.637,85.8681 124.5,84.5C 125.64,82.9222 126.14,81.2555 126,79.5C 124.649,81.019 123.149,82.3523 121.5,83.5C 119.842,80.8392 118.176,78.1725 116.5,75.5C 118.12,73.2606 117.787,71.4272 115.5,70C 116.833,68.3333 116.833,66.6667 115.5,65C 112.466,64.3399 109.633,64.8399 107,66.5C 105.732,66.3842 104.398,66.0509 103,65.5C 103.522,67.0491 103.355,68.5491 102.5,70C 102.905,70.9454 103.572,71.6121 104.5,72C 103.707,73.0852 103.04,74.2519 102.5,75.5C 104.395,76.973 106.061,78.6397 107.5,80.5C 108.478,80.0233 109.311,79.3567 110,78.5C 111.113,79.7111 112.28,79.7111 113.5,78.5C 115.285,80.6081 116.619,82.9414 117.5,85.5C 116.07,87.386 114.403,89.0527 112.5,90.5C 113.989,90.5331 115.322,91.0331 116.5,92C 103.579,92.4772 90.7455,91.9772 78,90.5C 75.6105,91.724 73.1105,92.224 70.5,92C 71.7112,91.1072 71.7112,90.2739 70.5,89.5C 68.8988,88.8346 67.3988,88.5012 66,88.5C 64.8129,86.9556 64.4795,85.2889 65,83.5C 73.6721,73.9951 82.5055,64.6617 91.5,55.5 Z"/></g>
<g><path style="opacity:1" fill="#232121" d="M 106.5,69.5 C 112.569,67.4825 114.402,69.4825 112,75.5C 109.691,73.8012 107.858,71.8012 106.5,69.5 Z"/></g>
<g><path style="opacity:1" fill="#232121" d="M 52.5,71.5 C 56.1811,71.7178 56.8478,72.8844 54.5,75C 56.3031,75.6368 57.6364,76.8035 58.5,78.5C 55.9135,79.48 53.2469,79.8134 50.5,79.5C 50.5614,77.4078 51.5614,75.9078 53.5,75C 52.3774,73.9563 51.0441,73.2896 49.5,73C 50.7375,72.7679 51.7375,72.2679 52.5,71.5 Z"/></g>
<g><path style="opacity:1" fill="#222121" d="M 152.5,127.5 C 152.369,128.239 152.536,128.906 153,129.5C 155.129,128.137 155.629,128.471 154.5,130.5C 155.274,131.711 156.107,131.711 157,130.5C 157.5,131.5 158,132.5 158.5,133.5C 154.425,135.061 150.758,134.394 147.5,131.5C 145.833,134.167 144.167,134.167 142.5,131.5C 141.614,132.325 141.281,133.325 141.5,134.5C 136.624,135.596 134.957,133.929 136.5,129.5C 135.5,128.833 134.5,128.167 133.5,127.5C 134.967,124.138 134.634,120.971 132.5,118C 137.872,106.756 143.372,95.5896 149,84.5C 155.075,86.8586 161.241,89.0253 167.5,91C 168.331,95.8323 169.665,100.499 171.5,105C 170.766,110.508 169.932,116.008 169,121.5C 167.082,122.542 165.249,123.708 163.5,125C 164.946,127.493 164.279,129.327 161.5,130.5C 160.328,130.081 159.328,129.415 158.5,128.5C 160.149,127.852 161.482,126.852 162.5,125.5C 161.229,125.874 160.062,125.208 159,123.5C 158.667,123.833 158.333,124.167 158,124.5C 157.581,123.328 156.915,122.328 156,121.5C 154.354,123.055 154.021,124.721 155,126.5C 154.329,127.252 153.496,127.586 152.5,127.5 Z"/></g>
<g><path style="opacity:1" fill="#232121" d="M 38.5,93.5 C 42.1299,93.7646 45.2966,95.0979 48,97.5C 49.0578,103.518 50.2245,109.518 51.5,115.5C 51.6578,117.319 50.9911,118.652 49.5,119.5C 48.7071,116.874 47.0405,115.04 44.5,114C 46.0317,111.67 45.6983,109.67 43.5,108C 45.9305,105.695 46.9305,102.862 46.5,99.5C 44.2478,98.6669 42.0811,98.6669 40,99.5C 37.5213,97.9116 37.0213,95.9116 38.5,93.5 Z"/></g>
<g><path style="opacity:1" fill="#222121" d="M 75.5,94.5 C 81.5,94.5 87.5,94.5 93.5,94.5C 94.426,102.833 95.426,111.166 96.5,119.5C 96.4371,121.481 97.1038,123.148 98.5,124.5C 94.4937,126.025 90.3271,127.025 86,127.5C 84.2856,126.924 83.1189,125.757 82.5,124C 85.4879,120.114 84.4879,117.614 79.5,116.5C 77.4465,118.027 75.6132,119.693 74,121.5C 68.19,120.177 63.0233,117.677 58.5,114C 61.8644,109.766 64.0311,104.933 65,99.5C 68.2624,97.145 71.7624,95.4783 75.5,94.5 Z"/></g>
<g><path style="opacity:1" fill="#222222" d="M 96.5,94.5 C 104.088,95.3006 111.755,95.8006 119.5,96C 121.548,98.3284 121.882,100.995 120.5,104C 120.396,106.145 121.063,107.979 122.5,109.5C 120.024,113.81 116.69,117.31 112.5,120C 113.667,123.833 116.167,126.333 120,127.5C 121.615,129.011 121.615,130.344 120,131.5C 119.097,130.299 117.931,129.465 116.5,129C 109.633,129.96 104.133,127.793 100,122.5C 98.6499,113.181 97.4832,103.848 96.5,94.5 Z"/></g>
<g><path style="opacity:1" fill="#222222" d="M 29.5,96.5 C 31.0257,97.1047 32.0257,98.2714 32.5,100C 36.6563,99.9978 39.6563,101.831 41.5,105.5C 37.9424,107.123 36.7757,109.79 38,113.5C 41.2079,117.044 44.7079,120.21 48.5,123C 48.1496,126.848 46.1496,129.348 42.5,130.5C 36.2158,130.888 30.2158,130.222 24.5,128.5C 20.4867,132.787 17.4867,132.287 15.5,127C 16.3079,125.294 17.6412,124.461 19.5,124.5C 19.67,123.178 19.3366,122.011 18.5,121C 19.7717,119.693 20.7717,118.193 21.5,116.5C 23.8152,116.314 26.1485,115.98 28.5,115.5C 27.2713,114.719 25.938,114.219 24.5,114C 25.677,111.842 25.0103,110.342 22.5,109.5C 20.444,110.048 18.7774,111.214 17.5,113C 15.3386,113.722 13.672,113.055 12.5,111C 12.1862,107.1 14.1862,104.6 18.5,103.5C 20.0982,103.61 21.7648,103.943 23.5,104.5C 23.8333,104.167 24.1667,103.833 24.5,103.5C 23.3595,101.922 22.8595,100.256 23,98.5C 25.6746,99.6881 27.8413,99.0215 29.5,96.5 Z"/></g>
<g><path style="opacity:1" fill="#00497f" d="M 151.5,109.5 C 151.56,108.957 151.893,108.624 152.5,108.5C 154.933,109.73 157.433,110.73 160,111.5C 159.723,114.403 158.556,117.07 156.5,119.5C 154.29,116.413 152.623,113.08 151.5,109.5 Z"/></g>
<g><path style="opacity:1" fill="#00497f" d="M 152.5,127.5 C 147.11,124.731 147.276,122.397 153,120.5C 153.018,122.797 152.851,125.131 152.5,127.5 Z"/></g>
<g><path style="opacity:1" fill="#00497f" d="M 142.5,123.5 C 143.461,125.265 143.795,127.265 143.5,129.5C 141.833,129.5 140.167,129.5 138.5,129.5C 138.351,128.448 138.517,127.448 139,126.5C 140.518,125.837 141.685,124.837 142.5,123.5 Z"/></g>
<g><path style="opacity:1" fill="#fefffe" d="M 32.5,152.5 C 35.8499,152.335 39.1832,152.502 42.5,153C 46.6959,155.981 47.5293,159.814 45,164.5C 42.4355,166.179 39.6021,166.846 36.5,166.5C 36.5,168.5 36.5,170.5 36.5,172.5C 35.1667,172.5 33.8333,172.5 32.5,172.5C 32.5,165.833 32.5,159.167 32.5,152.5 Z"/></g>
<g><path style="opacity:1" fill="#fefffe" d="M 49.5,152.5 C 53.9113,152.021 58.078,152.688 62,154.5C 63.9801,158.429 63.4801,162.096 60.5,165.5C 61.5,167.5 62.5,169.5 63.5,171.5C 62.1667,172.833 60.8333,172.833 59.5,171.5C 58.8149,167.382 56.4816,165.382 52.5,165.5C 52.5,167.833 52.5,170.167 52.5,172.5C 51.5,172.5 50.5,172.5 49.5,172.5C 49.5,165.833 49.5,159.167 49.5,152.5 Z"/></g>
<g><path style="opacity:1" fill="#fefffe" d="M 70.5,152.5 C 74.8884,151.943 78.0551,153.61 80,157.5C 81.4716,163.076 80.3049,167.909 76.5,172C 71.5724,173.643 68.0724,172.143 66,167.5C 65.3333,164.167 65.3333,160.833 66,157.5C 67.025,155.313 68.525,153.646 70.5,152.5 Z"/></g>
<g><path style="opacity:1" fill="#fefffe" d="M 82.5,152.5 C 84.1238,152.36 85.2904,153.027 86,154.5C 87.1775,159.543 88.5108,164.543 90,169.5C 91.4892,164.543 92.8225,159.543 94,154.5C 94.7096,153.027 95.8762,152.36 97.5,152.5C 96.163,158.849 94.663,165.183 93,171.5C 91,172.833 89,172.833 87,171.5C 85.337,165.183 83.837,158.849 82.5,152.5 Z"/></g>
<g><path style="opacity:1" fill="#fefffe" d="M 100.5,152.5 C 104.833,152.5 109.167,152.5 113.5,152.5C 113.5,153.5 113.5,154.5 113.5,155.5C 111.833,155.5 110.167,155.5 108.5,155.5C 108.5,160.167 108.5,164.833 108.5,169.5C 110.167,169.5 111.833,169.5 113.5,169.5C 113.5,170.5 113.5,171.5 113.5,172.5C 109.167,172.5 104.833,172.5 100.5,172.5C 100.5,171.5 100.5,170.5 100.5,169.5C 102.167,169.5 103.833,169.5 105.5,169.5C 105.5,164.833 105.5,160.167 105.5,155.5C 103.833,155.5 102.167,155.5 100.5,155.5C 100.5,154.5 100.5,153.5 100.5,152.5 Z"/></g>
<g><path style="opacity:1" fill="#fefffe" d="M 117.5,152.5 C 119.288,152.215 120.955,152.548 122.5,153.5C 123.901,158.203 125.401,162.87 127,167.5C 127.499,162.511 127.666,157.511 127.5,152.5C 128.5,152.5 129.5,152.5 130.5,152.5C 130.5,159.167 130.5,165.833 130.5,172.5C 128.712,172.785 127.045,172.452 125.5,171.5C 124.099,166.797 122.599,162.13 121,157.5C 120.501,162.489 120.334,167.489 120.5,172.5C 119.5,172.5 118.5,172.5 117.5,172.5C 117.5,165.833 117.5,159.167 117.5,152.5 Z"/></g>
<g><path style="opacity:1" fill="#fefffe" d="M 139.5,152.5 C 142.893,152.062 145.893,152.895 148.5,155C 147.892,155.87 147.059,156.37 146,156.5C 140.314,154.428 137.481,156.428 137.5,162.5C 137.963,168.798 141.13,170.798 147,168.5C 148.852,170.23 148.686,171.396 146.5,172C 136.168,173.332 132.001,168.832 134,158.5C 135.36,155.977 137.193,153.977 139.5,152.5 Z"/></g>
<g><path style="opacity:1" fill="#fefffe" d="M 151.5,152.5 C 156.167,152.5 160.833,152.5 165.5,152.5C 165.5,153.5 165.5,154.5 165.5,155.5C 162.167,155.5 158.833,155.5 155.5,155.5C 155.5,157.5 155.5,159.5 155.5,161.5C 157.833,161.5 160.167,161.5 162.5,161.5C 162.5,162.5 162.5,163.5 162.5,164.5C 160.167,164.5 157.833,164.5 155.5,164.5C 155.5,166.167 155.5,167.833 155.5,169.5C 158.833,169.5 162.167,169.5 165.5,169.5C 165.5,170.5 165.5,171.5 165.5,172.5C 160.833,172.5 156.167,172.5 151.5,172.5C 151.5,165.833 151.5,159.167 151.5,152.5 Z"/></g>
<g><path style="opacity:1" fill="#212221" d="M 36.5,155.5 C 42.3133,155.062 43.98,157.562 41.5,163C 39.8659,163.494 38.1992,163.66 36.5,163.5C 36.5,160.833 36.5,158.167 36.5,155.5 Z"/></g>
<g><path style="opacity:1" fill="#212221" d="M 52.5,155.5 C 58.6624,154.156 60.6624,156.322 58.5,162C 56.5273,162.495 54.5273,162.662 52.5,162.5C 52.5,160.167 52.5,157.833 52.5,155.5 Z"/></g>
<g><path style="opacity:1" fill="#212221" d="M 71.5,155.5 C 73.3904,155.297 74.8904,155.963 76,157.5C 76.6667,160.833 76.6667,164.167 76,167.5C 74,170.167 72,170.167 70,167.5C 68.994,163.198 69.494,159.198 71.5,155.5 Z"/></g>
</svg>
