<?xml version="1.0" encoding="UTF-8"?>
<!DOCTYPE svg PUBLIC "-//W3C//DTD SVG 1.1//EN" "http://www.w3.org/Graphics/SVG/1.1/DTD/svg11.dtd">
<svg xmlns="http://www.w3.org/2000/svg" version="1.1" width="200px" height="200px" style="shape-rendering:geometricPrecision; text-rendering:geometricPrecision; image-rendering:optimizeQuality; fill-rule:evenodd; clip-rule:evenodd" xmlns:xlink="http://www.w3.org/1999/xlink">
<g><path style="opacity:0.998" fill="#212121" d="M 8.5,-0.5 C 69.1667,-0.5 129.833,-0.5 190.5,-0.5C 194.58,1.91067 197.58,5.244 199.5,9.5C 199.5,69.8333 199.5,130.167 199.5,190.5C 196.789,194.212 193.456,197.212 189.5,199.5C 129.5,199.5 69.5,199.5 9.5,199.5C 5.54423,197.212 2.21089,194.212 -0.5,190.5C -0.5,130.167 -0.5,69.8333 -0.5,9.5C 1.42004,5.244 4.42004,1.91067 8.5,-0.5 Z"/></g>
<g><path style="opacity:1" fill="#fee150" d="M 15.5,9.5 C 72.2502,9.00822 128.917,9.50822 185.5,11C 187.049,12.214 188.215,13.714 189,15.5C 189.5,56.832 189.667,98.1653 189.5,139.5C 129.5,139.5 69.5,139.5 9.5,139.5C 9.33334,98.1653 9.50001,56.832 10,15.5C 11.3597,12.9774 13.193,10.9774 15.5,9.5 Z"/></g>
<g><path style="opacity:1" fill="#2e2c25" d="M 150.5,28.5 C 149.081,29.4511 147.415,29.7845 145.5,29.5C 131.702,27.114 119.369,30.114 108.5,38.5C 107.778,38.0825 107.278,37.4158 107,36.5C 105.829,37.8932 104.329,38.7265 102.5,39C 101.177,39.8159 100.511,40.9826 100.5,42.5C 101.627,41.8783 102.627,41.045 103.5,40C 104.749,39.2599 105.749,39.4265 106.5,40.5C 105.5,40.8333 104.833,41.5 104.5,42.5C 101.52,45.1444 98.5198,47.811 95.5,50.5C 92.7341,48.7407 90.7341,46.4073 89.5,43.5C 103.842,28.1069 121.508,21.9403 142.5,25C 145.374,25.9425 148.04,27.1092 150.5,28.5 Z"/></g>
<g><path style="opacity:1" fill="#fcdf50" d="M 145.5,29.5 C 148.057,30.4852 150.724,31.4852 153.5,32.5C 152.476,33.8518 151.476,35.1851 150.5,36.5C 147.097,38.8998 144.43,41.8998 142.5,45.5C 136.5,50.8333 130.833,56.5 125.5,62.5C 121.434,65.5628 118.101,69.2294 115.5,73.5C 101.135,86.8641 87.4686,100.864 74.5,115.5C 71.0969,117.9 68.4302,120.9 66.5,124.5C 65.8501,124.804 65.1835,125.137 64.5,125.5C 58.1503,109.803 59.4836,94.8033 68.5,80.5C 69.1667,79.8333 69.8333,79.1667 70.5,78.5C 73.5725,76.4309 75.9059,73.7642 77.5,70.5C 78.9641,68.3703 80.9641,67.037 83.5,66.5C 83.3433,65.1266 83.51,63.7932 84,62.5C 87.3825,60.6188 89.8825,57.9522 91.5,54.5C 93.099,54.7678 94.4324,54.4345 95.5,53.5C 95.5,53.1667 95.5,52.8333 95.5,52.5C 99.2054,49.7949 102.205,46.4616 104.5,42.5C 104.833,41.5 105.5,40.8333 106.5,40.5C 107.5,40.1667 108.167,39.5 108.5,38.5C 119.369,30.114 131.702,27.114 145.5,29.5 Z"/></g>
<g><path style="opacity:1" fill="#837638" d="M 108.5,38.5 C 108.167,39.5 107.5,40.1667 106.5,40.5C 105.749,39.4265 104.749,39.2599 103.5,40C 102.627,41.045 101.627,41.8783 100.5,42.5C 100.511,40.9826 101.177,39.8159 102.5,39C 104.329,38.7265 105.829,37.8932 107,36.5C 107.278,37.4158 107.778,38.0825 108.5,38.5 Z"/></g>
<g><path style="opacity:1" fill="#635a30" d="M 150.5,36.5 C 148.57,40.1002 145.903,43.1002 142.5,45.5C 144.43,41.8998 147.097,38.8998 150.5,36.5 Z"/></g>
<g><path style="opacity:1" fill="#cdb646" d="M 100.5,42.5 C 99.0992,45.3145 97.0992,46.6479 94.5,46.5C 95.7277,43.9285 97.7277,42.5952 100.5,42.5 Z"/></g>
<g><path style="opacity:1" fill="#353227" d="M 88.5,45.5 C 90.5,48.1667 92.8333,50.5 95.5,52.5C 95.5,52.8333 95.5,53.1667 95.5,53.5C 92.5463,52.3531 89.8796,50.6865 87.5,48.5C 84.728,45.8555 85.0614,44.8555 88.5,45.5 Z"/></g>
<g><path style="opacity:1" fill="#ad9b3f" d="M 104.5,42.5 C 102.205,46.4616 99.2054,49.7949 95.5,52.5C 92.8333,50.5 90.5,48.1667 88.5,45.5C 88.3284,44.5084 88.6618,43.8417 89.5,43.5C 90.7341,46.4073 92.7341,48.7407 95.5,50.5C 98.5198,47.811 101.52,45.1444 104.5,42.5 Z"/></g>
<g><path style="opacity:1" fill="#847737" d="M 87.5,48.5 C 89.8796,50.6865 92.5463,52.3531 95.5,53.5C 94.4324,54.4345 93.099,54.7678 91.5,54.5C 89.7484,52.7541 88.4151,50.7541 87.5,48.5 Z"/></g>
<g><path style="opacity:1" fill="#2d2b25" d="M 87.5,48.5 C 88.4151,50.7541 89.7484,52.7541 91.5,54.5C 89.8825,57.9522 87.3825,60.6188 84,62.5C 83.51,63.7932 83.3433,65.1266 83.5,66.5C 80.9641,67.037 78.9641,68.3703 77.5,70.5C 74.8333,72.5 72.5,74.8333 70.5,77.5C 69.9569,77.44 69.6236,77.1067 69.5,76.5C 70.8569,74.8144 72.1902,73.1477 73.5,71.5C 74.6253,69.8712 75.9586,68.3712 77.5,67C 75.0722,66.253 73.4056,67.0863 72.5,69.5C 70.5894,72.4385 68.5894,75.4385 66.5,78.5C 66.8457,79.6956 67.3457,79.6956 68,78.5C 68.4643,79.0944 68.631,79.7611 68.5,80.5C 59.4836,94.8033 58.1503,109.803 64.5,125.5C 65.1835,125.137 65.8501,124.804 66.5,124.5C 69.9031,122.1 72.5698,119.1 74.5,115.5C 75.4916,115.328 76.1583,115.662 76.5,116.5C 73.2039,120.298 69.7039,123.964 66,127.5C 65.6667,128.5 65.3333,129.5 65,130.5C 52.6633,113.454 51.33,95.454 61,76.5C 64.5794,69.4353 69.0794,63.102 74.5,57.5C 77.3943,58.8823 79.8943,60.8823 82,63.5C 82.6667,62.8333 82.6667,62.1667 82,61.5C 80.2927,59.9625 78.7927,58.2959 77.5,56.5C 79.404,51.9183 82.7373,49.2517 87.5,48.5 Z"/></g>
<g><path style="opacity:1" fill="#9d8d3c" d="M 74.5,57.5 C 75.209,56.596 76.209,56.2627 77.5,56.5C 78.7927,58.2959 80.2927,59.9625 82,61.5C 82.6667,62.1667 82.6667,62.8333 82,63.5C 79.8943,60.8823 77.3943,58.8823 74.5,57.5 Z"/></g>
<g><path style="opacity:1" fill="#e0c74a" d="M 73.5,71.5 C 72.6618,71.1583 72.3284,70.4916 72.5,69.5C 73.4056,67.0863 75.0722,66.253 77.5,67C 75.9586,68.3712 74.6253,69.8712 73.5,71.5 Z"/></g>
<g><path style="opacity:1" fill="#645b30" d="M 125.5,62.5 C 122.899,66.7706 119.566,70.4372 115.5,73.5C 118.101,69.2294 121.434,65.5628 125.5,62.5 Z"/></g>
<g><path style="opacity:1" fill="#7a6e35" d="M 72.5,69.5 C 72.3284,70.4916 72.6618,71.1583 73.5,71.5C 72.1902,73.1477 70.8569,74.8144 69.5,76.5C 69.6236,77.1067 69.9569,77.44 70.5,77.5C 70.5,77.8333 70.5,78.1667 70.5,78.5C 69.8333,79.1667 69.1667,79.8333 68.5,80.5C 68.631,79.7611 68.4643,79.0944 68,78.5C 67.3457,79.6956 66.8457,79.6956 66.5,78.5C 68.5894,75.4385 70.5894,72.4385 72.5,69.5 Z"/></g>
<g><path style="opacity:1" fill="#b4a141" d="M 77.5,70.5 C 75.9059,73.7642 73.5725,76.4309 70.5,78.5C 70.5,78.1667 70.5,77.8333 70.5,77.5C 72.5,74.8333 74.8333,72.5 77.5,70.5 Z"/></g>
<g><path style="opacity:1" fill="#3b3728" d="M 150.5,28.5 C 153.785,29.5999 156.785,31.2666 159.5,33.5C 158.726,34.7112 157.893,34.7112 157,33.5C 129.936,61.0619 103.103,88.7286 76.5,116.5C 76.1583,115.662 75.4916,115.328 74.5,115.5C 87.4686,100.864 101.135,86.8641 115.5,73.5C 119.566,70.4372 122.899,66.7706 125.5,62.5C 130.833,56.5 136.5,50.8333 142.5,45.5C 145.903,43.1002 148.57,40.1002 150.5,36.5C 151.476,35.1851 152.476,33.8518 153.5,32.5C 150.724,31.4852 148.057,30.4852 145.5,29.5C 147.415,29.7845 149.081,29.4511 150.5,28.5 Z"/></g>
<g><path style="opacity:1" fill="#625a30" d="M 74.5,115.5 C 72.5698,119.1 69.9031,122.1 66.5,124.5C 68.4302,120.9 71.0969,117.9 74.5,115.5 Z"/></g>
<g><path style="opacity:1" fill="#fefffe" d="M 62.5,158.5 C 64.1667,158.5 65.8333,158.5 67.5,158.5C 69.1667,165.167 70.8333,171.833 72.5,178.5C 69.5,178.833 68.1667,177.5 68.5,174.5C 66.1667,174.5 63.8333,174.5 61.5,174.5C 61.8333,177.5 60.5,178.833 57.5,178.5C 59.1667,171.833 60.8333,165.167 62.5,158.5 Z"/></g>
<g><path style="opacity:1" fill="#fefffe" d="M 75.5,158.5 C 77.288,158.215 78.9547,158.548 80.5,159.5C 81.901,164.203 83.401,168.87 85,173.5C 85.4993,168.511 85.6659,163.511 85.5,158.5C 86.5,158.5 87.5,158.5 88.5,158.5C 88.5,165.167 88.5,171.833 88.5,178.5C 86.712,178.785 85.0453,178.452 83.5,177.5C 82.099,172.797 80.599,168.13 79,163.5C 78.5007,168.489 78.3341,173.489 78.5,178.5C 77.5,178.5 76.5,178.5 75.5,178.5C 75.5,171.833 75.5,165.167 75.5,158.5 Z"/></g>
<g><path style="opacity:1" fill="#fefffe" d="M 92.5,158.5 C 93.5,158.5 94.5,158.5 95.5,158.5C 95.3341,163.511 95.5007,168.511 96,173.5C 97.916,176.033 99.916,176.033 102,173.5C 102.499,168.511 102.666,163.511 102.5,158.5C 103.5,158.5 104.5,158.5 105.5,158.5C 105.666,164.176 105.499,169.843 105,175.5C 101,179.5 97,179.5 93,175.5C 92.5006,169.843 92.3339,164.176 92.5,158.5 Z"/></g>
<g><path style="opacity:1" fill="#fefffe" d="M 109.5,158.5 C 113.833,158.5 118.167,158.5 122.5,158.5C 122.5,159.5 122.5,160.5 122.5,161.5C 120.833,161.5 119.167,161.5 117.5,161.5C 117.5,166.167 117.5,170.833 117.5,175.5C 119.167,175.5 120.833,175.5 122.5,175.5C 122.5,176.5 122.5,177.5 122.5,178.5C 118.167,178.5 113.833,178.5 109.5,178.5C 109.5,177.5 109.5,176.5 109.5,175.5C 111.167,175.5 112.833,175.5 114.5,175.5C 114.5,170.833 114.5,166.167 114.5,161.5C 112.833,161.5 111.167,161.5 109.5,161.5C 109.5,160.5 109.5,159.5 109.5,158.5 Z"/></g>
<g><path style="opacity:1" fill="#fefffe" d="M 131.5,158.5 C 134.893,158.062 137.893,158.895 140.5,161C 139.892,161.87 139.059,162.37 138,162.5C 132.314,160.428 129.481,162.428 129.5,168.5C 129.963,174.798 133.13,176.798 139,174.5C 140.852,176.23 140.686,177.396 138.5,178C 128.168,179.332 124.001,174.832 126,164.5C 127.36,161.977 129.193,159.977 131.5,158.5 Z"/></g>
<g><path style="opacity:1" fill="#212221" d="M 64.5,162.5 C 65.7908,164.949 66.7908,167.616 67.5,170.5C 65.8333,171.833 64.1667,171.833 62.5,170.5C 63.4822,167.904 64.1489,165.238 64.5,162.5 Z"/></g>
</svg>
